<?xml version="1.0" encoding="UTF-8"?>
<svg id="Layer_1" data-name="Layer 1" xmlns="http://www.w3.org/2000/svg" viewBox="0 0 637.74 333.43">
  <defs>
    <style>
      .cls-1 {
        stroke: #1d1d1b;
        stroke-miterlimit: 10;
        stroke-width: .5px;
      }
    </style>
  </defs>
  <path class="cls-1" d="M313.68,22.25c-.13,0-.24-.11-.24-.24l-.37-21.23c0-.13.1-.24.24-.25.13,0,.24.1.25.24l.37,21.23c0,.13-.11.24-.24.25h0Z"/>
  <path class="cls-1" d="M324.05,22.25h0c-.13,0-.24-.11-.24-.25l.37-21.23c0-.13.09-.25.25-.24.13,0,.24.11.24.25l-.37,21.23c0,.13-.11.24-.24.24Z"/>
  <path class="cls-1" d="M308.5,22.38c-.13,0-.24-.1-.25-.23l-.74-21.21c0-.13.1-.25.23-.25.13,0,.25.1.25.23l.74,21.21c0,.13-.1.25-.24.25h0Z"/>
  <path class="cls-1" d="M298.14,22.93c-.13,0-.23-.1-.24-.23l-1.48-21.18c0-.13.09-.25.22-.26.14-.01.25.09.26.22l1.48,21.18c0,.13-.09.25-.22.26h-.02Z"/>
  <path class="cls-1" d="M303.32,22.61c-.13,0-.23-.1-.24-.23l-1.11-21.2c0-.13.1-.25.23-.25.15,0,.25.1.25.23l1.11,21.2c0,.13-.1.25-.23.25h-.01Z"/>
  <path class="cls-1" d="M329.24,22.38h0c-.13,0-.24-.12-.24-.25l.74-21.21c0-.13.11-.24.25-.23.13,0,.24.12.23.25l-.74,21.21c0,.13-.12.23-.25.23Z"/>
  <path class="cls-1" d="M339.6,22.93h-.02c-.13,0-.23-.13-.22-.26l1.48-21.18c0-.13.13-.24.26-.22.13,0,.23.12.22.26l-1.48,21.18c0,.13-.11.23-.24.23Z"/>
  <path class="cls-1" d="M334.42,22.61h-.01c-.13,0-.24-.12-.23-.25l1.11-21.2c0-.13.14-.23.25-.23.13,0,.24.12.23.25l-1.11,21.2c0,.13-.11.23-.24.23Z"/>
  <path class="cls-1" d="M365.36,25.86s-.02,0-.04,0c-.13-.02-.22-.14-.2-.28l3.32-20.97c.02-.13.14-.22.28-.2.13.02.22.14.2.28l-3.32,20.97c-.02.12-.12.2-.24.2Z"/>
  <path class="cls-1" d="M360.23,25.1s-.02,0-.03,0c-.13-.02-.22-.14-.21-.27l2.95-21.02c.02-.13.14-.22.27-.21.13.02.22.14.21.27l-2.95,21.02c-.02.12-.12.21-.24.21Z"/>
  <path class="cls-1" d="M349.93,23.83h-.03c-.13-.02-.23-.13-.22-.27l2.22-21.11c.01-.13.14-.22.27-.22.13.01.23.13.22.27l-2.22,21.11c-.01.12-.12.22-.24.22Z"/>
  <path class="cls-1" d="M355.09,24.42s-.02,0-.03,0c-.13-.02-.23-.14-.21-.27l2.59-21.07c.02-.13.14-.22.27-.21.13.02.23.14.21.27l-2.59,21.07c-.02.12-.12.21-.24.21Z"/>
  <path class="cls-1" d="M272.38,25.86c-.12,0-.22-.09-.24-.2l-3.32-20.97c-.02-.13.07-.26.2-.28.14-.02.26.07.28.2l3.32,20.97c.02.13-.07.26-.2.28-.01,0-.03,0-.04,0Z"/>
  <path class="cls-1" d="M277.51,25.1c-.12,0-.22-.09-.24-.21l-2.95-21.02c-.02-.13.07-.26.21-.27.13-.02.26.07.27.21l2.95,21.02c.02.13-.07.26-.21.27-.01,0-.02,0-.03,0Z"/>
  <path class="cls-1" d="M287.8,23.83c-.12,0-.23-.09-.24-.22l-2.22-21.11c-.01-.13.08-.25.22-.27.14,0,.25.08.27.22l2.22,21.11c.01.13-.08.25-.22.27h-.03Z"/>
  <path class="cls-1" d="M282.65,24.42c-.12,0-.23-.09-.24-.21l-2.59-21.07c-.02-.13.08-.25.21-.27.12-.01.25.08.27.21l2.59,21.07c.02.13-.08.25-.21.27,0,0-.02,0-.03,0Z"/>
  <path class="cls-1" d="M375.58,27.66s-.03,0-.05,0c-.13-.03-.22-.15-.19-.28l4.05-20.84c.02-.13.15-.22.28-.19.13.03.22.15.19.28l-4.05,20.84c-.02.12-.12.2-.24.2Z"/>
  <path class="cls-1" d="M380.66,28.7s-.03,0-.05,0c-.13-.03-.21-.16-.19-.29l4.42-20.76c.03-.13.15-.22.29-.19.13.03.21.16.19.29l-4.42,20.76c-.02.11-.12.19-.24.19Z"/>
  <path class="cls-1" d="M262.16,27.66c-.11,0-.22-.08-.24-.2l-4.05-20.84c-.03-.13.06-.26.19-.28.14-.03.26.06.28.19l4.05,20.84c.03.13-.06.26-.19.28-.02,0-.03,0-.05,0Z"/>
  <path class="cls-1" d="M257.08,28.7c-.11,0-.21-.08-.24-.19l-4.42-20.76c-.03-.13.05-.26.19-.29.14-.03.26.05.29.19l4.42,20.76c.03.13-.05.26-.19.29-.02,0-.03,0-.05,0Z"/>
  <path d="M318.87,333.43c-.13,0-.24-.11-.24-.24v-22.32c0-.13.11-.24.24-.24s.24.11.24.24v22.32c0,.13-.11.24-.24.24Z"/>
  <path class="cls-1" d="M367.45,44.1s-.06,0-.09,0c-.26-.05-.44-.3-.39-.56l6.71-38.05c.05-.26.3-.44.56-.39.26.05.44.3.39.56l-6.71,38.05c-.04.23-.25.4-.48.4Z"/>
  <path class="cls-1" d="M293.89,34.15c-.25,0-.46-.19-.48-.44l-2.78-31.72c-.02-.27.17-.5.44-.52.28-.02.5.17.52.44l2.78,31.72c.02.27-.17.5-.44.52-.02,0-.03,0-.04,0Z"/>
  <path class="cls-1" d="M343.85,34.15s-.03,0-.04,0c-.27-.02-.46-.26-.44-.52l2.77-31.72c.02-.27.25-.45.52-.44.27.02.46.26.44.52l-2.77,31.72c-.02.25-.23.44-.48.44Z"/>
  <path class="cls-1" d="M270.28,43.86c-.12,0-.22-.08-.24-.2l-6.71-38.05c-.02-.13.06-.26.2-.28.13-.03.26.06.28.2l6.71,38.05c.02.13-.06.26-.2.28-.01,0-.03,0-.04,0Z"/>
  <path class="cls-1" d="M367.45,44.1s-.06,0-.09,0c-.26-.05-.44-.3-.39-.56l6.71-38.05c.05-.26.3-.44.56-.39.26.05.44.3.39.56l-6.71,38.05c-.04.23-.25.4-.48.4Z"/>
  <path class="cls-1" d="M439.99,59.91c-.07,0-.14-.01-.2-.05-.24-.11-.35-.4-.23-.64l13.46-28.86c.11-.24.4-.35.64-.23.24.11.35.4.23.64l-13.46,28.86c-.08.18-.26.28-.44.28Z"/>
  <path class="cls-1" d="M425.37,41.94s-.06,0-.09-.02c-.12-.05-.19-.19-.14-.31l7.61-19.82c.05-.13.19-.19.31-.14.12.05.19.19.14.31l-7.61,19.82c-.04.1-.13.16-.23.16Z"/>
  <path class="cls-1" d="M415.63,38.4s-.05,0-.08-.01c-.13-.04-.19-.18-.15-.31l6.91-20.07c.04-.13.19-.2.31-.15.13.04.19.18.15.31l-6.91,20.07c-.03.1-.13.16-.23.16Z"/>
  <path class="cls-1" d="M430.2,43.84s-.06,0-.09-.02c-.12-.05-.18-.19-.13-.31l7.96-19.68c.05-.12.19-.19.31-.13.12.05.18.19.13.31l-7.96,19.68c-.04.09-.13.15-.22.15Z"/>
  <path class="cls-1" d="M439.75,47.9s-.07,0-.1-.02c-.12-.05-.18-.2-.12-.32l8.63-19.39c.05-.12.2-.18.32-.12.12.05.18.2.12.32l-8.63,19.39c-.04.09-.13.14-.22.14Z"/>
  <path class="cls-1" d="M434.99,45.83s-.06,0-.09-.02c-.12-.05-.18-.19-.13-.32l8.29-19.54c.05-.12.19-.18.32-.13.12.05.18.19.13.32l-8.29,19.54c-.04.09-.13.15-.22.15Z"/>
  <path class="cls-1" d="M393.04,42.83s-.08,0-.12-.02c-.26-.07-.41-.33-.34-.59l8.24-30.76c.07-.26.34-.41.59-.34.26.07.41.33.34.59l-8.24,30.76c-.06.22-.25.36-.47.36Z"/>
  <path class="cls-1" d="M410.71,36.75s-.05,0-.07-.01c-.13-.04-.2-.18-.16-.3l6.56-20.19c.04-.13.18-.2.3-.16.13.04.2.18.16.3l-6.56,20.19c-.03.1-.13.17-.23.17Z"/>
  <path class="cls-1" d="M400.79,33.72s-.04,0-.07,0c-.13-.04-.2-.17-.17-.3l5.85-20.41c.04-.13.17-.21.3-.17.13.04.2.17.17.3l-5.85,20.41c-.03.11-.13.17-.23.17Z"/>
  <path class="cls-1" d="M405.76,35.19s-.05,0-.07-.01c-.13-.04-.2-.17-.16-.3l6.21-20.3c.04-.13.18-.19.3-.16.13.04.2.17.16.3l-6.21,20.3c-.03.1-.13.17-.23.17Z"/>
  <path class="cls-1" d="M390.77,31.03s-.04,0-.06,0c-.13-.03-.21-.16-.18-.29l5.14-20.6c.03-.13.16-.21.29-.18.13.03.21.16.18.29l-5.14,20.6c-.03.11-.13.18-.23.18Z"/>
  <path class="cls-1" d="M385.72,29.82s-.04,0-.05,0c-.13-.03-.21-.16-.18-.29l4.78-20.69c.03-.13.16-.22.29-.18.13.03.21.16.18.29l-4.78,20.69c-.03.11-.12.19-.24.19Z"/>
  <path class="cls-1" d="M462.95,59.47s-.08,0-.12-.03c-.12-.07-.16-.21-.09-.33l10.29-18.57c.07-.12.21-.16.33-.09.12.07.16.21.09.33l-10.29,18.57c-.04.08-.13.12-.21.12Z"/>
  <path class="cls-1" d="M458.4,56.99s-.08,0-.11-.03c-.12-.06-.16-.21-.1-.33l9.97-18.74c.06-.12.21-.16.33-.1.12.06.16.21.1.33l-9.97,18.74c-.04.08-.13.13-.21.13Z"/>
  <path class="cls-1" d="M449.15,52.28s-.07,0-.11-.02c-.12-.06-.17-.2-.11-.32l9.3-19.08c.06-.12.2-.17.32-.11.12.06.17.2.11.32l-9.3,19.08c-.04.09-.13.14-.22.14Z"/>
  <path class="cls-1" d="M453.79,54.6s-.07,0-.11-.03c-.12-.06-.17-.21-.11-.33l9.64-18.91c.06-.12.21-.17.33-.11.12.06.17.21.11.33l-9.64,18.91c-.04.08-.13.13-.22.13Z"/>
  <path class="cls-1" d="M533.2,139.56c-.07,0-.14-.03-.19-.09-.09-.1-.07-.26.03-.34l29.6-24.83c.1-.09.25-.07.34.03.09.1.07.26-.03.34l-29.6,24.83s-.1.06-.16.06Z"/>
  <path class="cls-1" d="M483.25,84.89c-.1,0-.19-.03-.28-.09-.22-.15-.27-.45-.12-.67l18.26-26.08c.15-.22.45-.27.67-.12.22.15.27.45.12.67l-18.26,26.08c-.09.13-.24.21-.4.21Z"/>
  <path class="cls-1" d="M505.9,88.44c-.05,0-.11-.02-.15-.05-.1-.08-.12-.24-.04-.34l13.36-16.5c.09-.1.24-.12.34-.04.1.08.12.24.04.34l-13.36,16.5c-.05.06-.12.09-.19.09Z"/>
  <path class="cls-1" d="M513.85,95.1c-.06,0-.11-.02-.16-.06-.1-.09-.11-.24-.02-.34l13.93-16.02c.09-.1.24-.11.34-.02.1.09.11.24.02.34l-13.93,16.02c-.05.05-.12.08-.18.08Z"/>
  <path class="cls-1" d="M501.84,85.21c-.05,0-.1-.02-.15-.05-.1-.08-.12-.23-.04-.34l13.07-16.73c.08-.1.23-.12.34-.04.1.08.12.23.04.34l-13.07,16.73c-.05.06-.12.09-.19.09Z"/>
  <path class="cls-1" d="M493.56,78.96s-.1-.02-.14-.05c-.11-.08-.13-.23-.05-.34l12.48-17.17c.08-.11.23-.13.34-.05.11.08.13.23.05.34l-12.48,17.17c-.05.07-.12.1-.2.1Z"/>
  <path class="cls-1" d="M497.73,82.05c-.05,0-.1-.02-.15-.05-.11-.08-.13-.23-.05-.34l12.77-16.95c.08-.11.23-.13.34-.05.11.08.13.23.05.34l-12.77,16.95c-.05.06-.12.1-.19.1Z"/>
  <path class="cls-1" d="M521.51,117c-.12,0-.25-.05-.34-.14-.19-.19-.19-.5,0-.68l22.52-22.52c.19-.19.5-.19.68,0,.19.19.19.5,0,.68l-22.52,22.52c-.09.09-.22.14-.34.14Z"/>
  <path class="cls-1" d="M517.73,98.54c-.06,0-.12-.02-.16-.06-.1-.09-.11-.24-.02-.34l14.2-15.78c.09-.1.24-.11.34-.02.1.09.11.24.02.34l-14.2,15.78c-.05.05-.11.08-.18.08Z"/>
  <path class="cls-1" d="M525.32,105.62c-.06,0-.12-.02-.17-.07-.1-.09-.1-.25,0-.34l14.74-15.27c.09-.1.25-.1.34,0,.1.09.1.25,0,.34l-14.74,15.27s-.11.07-.17.07Z"/>
  <path class="cls-1" d="M521.56,102.05c-.06,0-.12-.02-.17-.07-.1-.09-.1-.24-.01-.34l14.48-15.53c.09-.1.24-.1.34-.01.1.09.1.24.01.34l-14.48,15.53c-.05.05-.11.08-.18.08Z"/>
  <path class="cls-1" d="M543.17,124.42c-.07,0-.14-.03-.18-.08-.09-.1-.08-.25.02-.34l16.02-13.93c.1-.09.25-.08.34.02.09.1.08.25-.02.34l-16.02,13.93s-.1.06-.16.06Z"/>
  <path class="cls-1" d="M539.73,120.54c-.07,0-.13-.03-.18-.08-.09-.1-.08-.25.02-.34l15.78-14.2c.1-.09.25-.08.34.02.09.1.08.25-.02.34l-15.78,14.2s-.1.06-.16.06Z"/>
  <path class="cls-1" d="M532.65,112.95c-.06,0-.13-.02-.17-.07-.09-.1-.09-.25,0-.34l15.27-14.75c.1-.09.25-.09.34,0,.09.1.09.25,0,.34l-15.27,14.75s-.11.07-.17.07Z"/>
  <path class="cls-1" d="M536.23,116.71c-.06,0-.13-.03-.18-.08-.09-.1-.09-.25.01-.34l15.53-14.48c.1-.09.25-.09.34.01.09.1.09.25-.01.34l-15.53,14.48s-.11.07-.17.07Z"/>
  <path class="cls-1" d="M471.94,64.65s-.09-.01-.12-.03c-.11-.07-.15-.22-.08-.33l10.93-18.2c.07-.12.22-.15.33-.08.11.07.15.22.08.33l-10.93,18.2c-.05.08-.12.12-.21.12Z"/>
  <path class="cls-1" d="M476.36,67.36s-.09-.01-.13-.04c-.11-.07-.15-.22-.08-.33l11.25-18c.07-.11.22-.15.33-.08.11.07.15.22.08.33l-11.25,18c-.05.07-.12.11-.21.11Z"/>
  <path class="cls-1" d="M485.06,73.01s-.09-.01-.14-.04c-.11-.07-.14-.23-.07-.34l11.87-17.6c.07-.11.22-.14.34-.07.11.07.14.23.07.34l-11.87,17.6c-.05.07-.12.11-.2.11Z"/>
  <path class="cls-1" d="M480.73,70.15s-.09-.01-.13-.04c-.11-.07-.14-.22-.07-.33l11.56-17.8c.07-.11.22-.14.33-.07.11.07.14.22.07.33l-11.56,17.8c-.05.07-.12.11-.2.11Z"/>
  <path class="cls-1" d="M594.41,271.06c-.23,0-.43-.17-.48-.4-.05-.26.13-.51.39-.56l38.05-6.71c.26-.05.51.13.56.39.05.26-.13.51-.39.56l-38.05,6.71s-.06,0-.09,0Z"/>
  <path class="cls-1" d="M637.29,319.4h-38.64c-.13,0-.24-.11-.24-.24s.11-.24.24-.24h38.64c.13,0,.24.11.24.24s-.11.24-.24.24Z"/>
  <path class="cls-1" d="M595.69,245.47c-.21,0-.41-.14-.47-.36-.07-.26.08-.52.34-.59l30.76-8.24c.26-.06.52.09.59.34.07.26-.08.52-.34.59l-30.76,8.24s-.08.02-.13.02Z"/>
  <path class="cls-1" d="M610.61,262.69c-.11,0-.22-.08-.24-.2-.03-.13.06-.26.19-.28l20.84-4.05c.14-.04.26.06.28.19.03.13-.06.26-.19.28l-20.84,4.05s-.03,0-.05,0Z"/>
  <path class="cls-1" d="M612.41,272.91c-.12,0-.22-.09-.24-.2-.02-.13.07-.26.2-.28l20.97-3.32c.14-.02.26.07.28.2.02.13-.07.26-.2.28l-20.97,3.32s-.03,0-.04,0Z"/>
  <path class="cls-1" d="M609.57,257.61c-.11,0-.21-.08-.24-.19-.03-.13.05-.26.19-.29l20.77-4.42c.14-.03.26.06.29.19.03.13-.05.26-.19.29l-20.77,4.42s-.03,0-.05,0Z"/>
  <path class="cls-1" d="M607.24,247.5c-.11,0-.21-.07-.23-.18-.03-.13.05-.26.18-.29l20.6-5.14c.13-.04.26.05.29.18.03.13-.05.26-.18.29l-20.6,5.14s-.04,0-.06,0Z"/>
  <path class="cls-1" d="M608.45,252.55c-.11,0-.21-.08-.24-.19-.03-.13.05-.26.18-.29l20.68-4.78c.13-.04.26.05.29.18.03.13-.05.26-.18.29l-20.68,4.78s-.04,0-.05,0Z"/>
  <path class="cls-1" d="M604.36,294.67c-.25,0-.46-.19-.48-.44-.02-.27.17-.5.44-.52l31.72-2.78c.28-.03.5.17.52.44.02.27-.17.5-.44.52,0,0-31.75,2.78-31.76,2.78Z"/>
  <path class="cls-1" d="M613.18,278.04c-.12,0-.22-.09-.24-.21-.02-.13.07-.26.21-.27l21.02-2.95c.13-.01.25.07.27.21.02.13-.07.26-.21.27l-21.02,2.95s-.02,0-.03,0Z"/>
  <path class="cls-1" d="M614.44,288.34c-.12,0-.23-.09-.24-.22-.01-.13.08-.25.22-.27l21.11-2.22c.14-.01.25.08.27.22.01.13-.08.25-.22.27l-21.11,2.22h-.03Z"/>
  <path class="cls-1" d="M613.85,283.18c-.12,0-.23-.09-.24-.21-.02-.13.08-.25.21-.27l21.07-2.58c.13-.01.25.08.27.21.02.13-.08.25-.21.27l-21.07,2.58s-.02,0-.03,0Z"/>
  <path class="cls-1" d="M616.02,314.22c-.13,0-.24-.11-.24-.24,0-.13.1-.24.24-.25l21.23-.37c.13,0,.24.1.25.24,0,.13-.1.24-.24.25l-21.23.37Z"/>
  <path class="cls-1" d="M615.89,309.03c-.13,0-.24-.1-.24-.23,0-.13.1-.25.23-.25l21.21-.74c.15,0,.25.1.25.23,0,.13-.1.25-.23.25l-21.22.74Z"/>
  <path class="cls-1" d="M615.34,298.67c-.13,0-.23-.1-.24-.23,0-.13.09-.25.22-.26l21.18-1.48c.14-.02.25.09.26.22,0,.13-.09.25-.22.26l-21.18,1.48h-.02Z"/>
  <path class="cls-1" d="M615.66,303.85c-.13,0-.23-.1-.24-.23,0-.13.1-.25.23-.25l21.2-1.11c.13.02.25.1.25.23,0,.13-.1.25-.23.25l-21.21,1.11Z"/>
  <path class="cls-1" d="M599.87,222.64c-.1,0-.19-.06-.23-.16-.04-.13.02-.26.15-.31l20.07-6.91c.12-.04.26.02.31.15.04.13-.02.26-.15.31l-20.07,6.91s-.05.01-.08.01Z"/>
  <path class="cls-1" d="M604.55,237.48c-.1,0-.2-.07-.23-.17-.04-.13.04-.26.17-.3l20.4-5.85c.13-.04.26.04.3.17.04.13-.04.26-.17.3l-20.4,5.85s-.05,0-.07,0Z"/>
  <path class="cls-1" d="M603.08,232.51c-.1,0-.2-.07-.23-.17-.04-.13.03-.26.16-.3l20.3-6.21c.13-.03.26.03.3.16.04.13-.03.26-.16.3l-20.3,6.21s-.05.01-.07.01Z"/>
  <path class="cls-1" d="M533.2,139.8c-.14,0-.28-.06-.37-.17-.17-.21-.15-.51.06-.68l29.6-24.83c.2-.17.51-.15.68.06.17.21.15.51-.06.68l-29.6,24.83c-.09.08-.2.11-.31.11Z"/>
  <path class="cls-1" d="M578.6,198.53c-.18,0-.36-.1-.44-.28-.11-.24,0-.53.23-.64l28.86-13.46c.24-.11.53,0,.64.23.11.24,0,.53-.23.64l-28.86,13.46c-.07.03-.14.05-.2.05Z"/>
  <path class="cls-1" d="M578.8,175.32c-.09,0-.17-.05-.21-.12-.06-.12-.02-.26.09-.33l18.57-10.29c.12-.07.26-.02.33.09.06.12.02.26-.09.33l-18.57,10.29s-.08.03-.12.03Z"/>
  <path class="cls-1" d="M573.62,166.33c-.08,0-.16-.04-.21-.12-.07-.11-.03-.26.08-.33l18.2-10.93c.11-.07.26-.03.33.08.07.11.03.26-.08.33l-18.2,10.93s-.08.03-.12.03Z"/>
  <path class="cls-1" d="M581.28,179.88c-.09,0-.17-.05-.21-.13-.06-.12-.02-.26.1-.33l18.75-9.97c.12-.06.26-.02.33.1.06.12.02.26-.1.33l-18.75,9.97s-.07.03-.11.03Z"/>
  <path class="cls-1" d="M585.99,189.12c-.09,0-.18-.05-.22-.14-.06-.12,0-.26.11-.32l19.08-9.31c.12-.06.26,0,.32.11.06.12,0,.26-.11.32l-19.08,9.31s-.07.02-.11.02Z"/>
  <path class="cls-1" d="M583.67,184.48c-.09,0-.17-.05-.22-.13-.06-.12-.01-.26.11-.33l18.92-9.64c.12-.06.26-.01.33.11.06.12.01.26-.11.33l-18.92,9.64s-.07.03-.11.03Z"/>
  <path class="cls-1" d="M553.62,155.27c-.15,0-.3-.07-.4-.21-.15-.22-.1-.52.12-.67l26.09-18.26c.22-.15.52-.1.67.12.15.22.1.52-.12.67l-26.09,18.26c-.09.06-.18.09-.28.09Z"/>
  <path class="cls-1" d="M570.91,161.91c-.08,0-.16-.04-.21-.11-.07-.11-.04-.26.08-.33l18-11.25c.11-.07.26-.04.33.08.07.11.04.26-.08.33l-18,11.25s-.08.04-.13.04Z"/>
  <path class="cls-1" d="M565.26,153.21c-.08,0-.15-.04-.2-.11-.07-.11-.05-.26.07-.34l17.6-11.87c.11-.08.26-.05.34.07.07.11.05.26-.07.34l-17.6,11.87s-.09.04-.14.04Z"/>
  <path class="cls-1" d="M568.12,157.54c-.08,0-.16-.04-.2-.11-.07-.11-.04-.26.07-.33l17.81-11.56c.11-.07.26-.04.33.07.07.11.04.26-.07.33l-17.81,11.56s-.09.04-.13.04Z"/>
  <path class="cls-1" d="M581.78,223.71c-.1,0-.19-.06-.23-.16-.05-.13.02-.26.14-.31l36.31-13.21c.13-.04.27.02.31.14.05.13-.02.26-.14.31l-36.31,13.21s-.06.01-.08.01Z"/>
  <path class="cls-1" d="M549.83,132.37c-.07,0-.14-.03-.19-.09-.08-.1-.07-.26.04-.34l16.5-13.36c.1-.08.26-.07.34.04.08.1.07.26-.04.34l-16.5,13.36s-.1.05-.15.05Z"/>
  <path class="cls-1" d="M553.06,136.43c-.07,0-.14-.03-.19-.09-.08-.11-.06-.26.04-.34l16.73-13.07c.1-.08.26-.06.34.04.08.11.06.26-.04.34l-16.73,13.07s-.1.05-.15.05Z"/>
  <path class="cls-1" d="M559.31,144.71c-.07,0-.15-.03-.2-.1-.08-.11-.05-.26.05-.34l17.18-12.48c.11-.08.26-.05.34.05.08.11.05.26-.05.34l-17.18,12.48s-.09.05-.14.05Z"/>
  <path class="cls-1" d="M556.22,140.54c-.07,0-.15-.03-.19-.1-.08-.11-.06-.26.05-.34l16.95-12.78c.11-.08.26-.06.34.05.08.11.06.26-.05.34l-16.95,12.78s-.09.05-.15.05Z"/>
  <path class="cls-1" d="M596.33,212.9c-.1,0-.19-.06-.23-.16-.05-.12.01-.26.14-.31l19.82-7.61c.12-.05.26.01.31.14.05.12-.01.26-.14.31l-19.82,7.61s-.06.02-.09.02Z"/>
  <path class="cls-1" d="M594.43,208.07c-.1,0-.19-.06-.22-.15-.05-.12,0-.26.13-.31l19.68-7.95c.12-.05.26,0,.31.13.05.12,0,.26-.13.31l-19.68,7.95s-.06.02-.09.02Z"/>
  <path class="cls-1" d="M590.37,198.52c-.09,0-.18-.05-.22-.14-.05-.12,0-.26.12-.32l19.39-8.63c.12-.05.26,0,.32.12.05.12,0,.26-.12.32l-19.39,8.64s-.07.02-.1.02Z"/>
  <path class="cls-1" d="M592.44,203.28c-.09,0-.18-.05-.22-.15-.05-.12,0-.26.13-.32l19.54-8.29c.13-.05.26,0,.32.13.05.12,0,.26-.13.32l-19.54,8.29s-.06.02-.09.02Z"/>
  <rect class="cls-1" x="216.08" y="19.04" width=".97" height="38.64" transform="translate(-.06 76.37) rotate(-20)"/>
  <path class="cls-1" d="M178.97,77.1c-.08,0-.16-.04-.21-.12l-19.32-33.46c-.07-.12-.03-.26.09-.33.11-.07.26-.03.33.09l19.32,33.46c.07.12.03.26-.09.33-.04.02-.08.03-.12.03Z"/>
  <path class="cls-1" d="M244.69,42.83c-.21,0-.41-.14-.47-.36l-8.24-30.76c-.07-.26.08-.52.34-.59.26-.06.52.09.59.34l8.24,30.76c.07.26-.08.52-.34.59-.04.01-.08.02-.12.02Z"/>
  <path class="cls-1" d="M222.11,38.4c-.1,0-.19-.06-.23-.16l-6.91-20.07c-.04-.13.02-.26.15-.31.12-.05.26.02.31.15l6.91,20.07c.04.13-.02.26-.15.31-.03,0-.05.01-.08.01Z"/>
  <path class="cls-1" d="M212.36,41.94c-.1,0-.19-.06-.23-.16l-7.61-19.82c-.05-.12.01-.26.14-.31.12-.05.26.01.31.14l7.61,19.82c.05.12-.01.26-.14.31-.03.01-.06.02-.09.02Z"/>
  <path class="cls-1" d="M227.03,36.75c-.1,0-.2-.07-.23-.17l-6.56-20.19c-.04-.13.03-.26.16-.3.13-.04.26.03.3.16l6.56,20.19c.04.13-.03.26-.16.3-.02,0-.05.01-.07.01Z"/>
  <path class="cls-1" d="M236.95,33.72c-.1,0-.2-.07-.23-.17l-5.85-20.41c-.04-.13.04-.26.17-.3.13-.04.26.04.3.17l5.85,20.41c.04.13-.04.26-.17.3-.02,0-.05,0-.07,0Z"/>
  <path class="cls-1" d="M231.98,35.19c-.1,0-.2-.07-.23-.17l-6.21-20.3c-.04-.13.03-.26.16-.3.13-.03.26.03.3.16l6.21,20.3c.04.13-.03.26-.16.3-.02,0-.05.01-.07.01Z"/>
  <path class="cls-1" d="M197.75,59.91c-.18,0-.36-.1-.44-.28l-13.46-28.86c-.11-.24,0-.53.23-.64.24-.11.53,0,.64.23l13.46,28.86c.11.24,0,.53-.23.64-.07.03-.14.05-.2.05Z"/>
  <path class="cls-1" d="M207.54,43.84c-.1,0-.19-.06-.22-.15l-7.95-19.68c-.05-.12,0-.26.13-.31.12-.05.26,0,.31.13l7.95,19.68c.05.12,0,.26-.13.31-.03.01-.06.02-.09.02Z"/>
  <path class="cls-1" d="M197.99,47.9c-.09,0-.18-.05-.22-.14l-8.64-19.39c-.05-.12,0-.26.12-.32.12-.05.26,0,.32.12l8.64,19.39c.05.12,0,.26-.12.32-.03.01-.07.02-.1.02Z"/>
  <path class="cls-1" d="M202.74,45.83c-.09,0-.18-.05-.22-.15l-8.29-19.54c-.05-.12,0-.26.13-.32.13-.05.26,0,.32.13l8.29,19.54c.05.12,0,.26-.13.32-.03.01-.06.02-.09.02Z"/>
  <path class="cls-1" d="M270.28,44.37c-.23,0-.43-.17-.48-.4l-6.71-38.05c-.05-.26.13-.51.39-.56.26-.06.51.13.56.39l6.71,38.05c.05.26-.13.51-.39.56-.03,0-.06,0-.09,0Z"/>
  <path class="cls-1" d="M174.79,59.47c-.09,0-.17-.05-.21-.12l-10.29-18.57c-.06-.12-.02-.26.09-.33.12-.07.26-.02.33.09l10.29,18.57c.06.12.02.26-.09.33-.04.02-.08.03-.12.03Z"/>
  <path class="cls-1" d="M179.34,56.99c-.09,0-.17-.05-.21-.13l-9.97-18.74c-.06-.12-.02-.26.1-.33.12-.06.26-.02.33.1l9.97,18.74c.06.12.02.26-.1.33-.04.02-.07.03-.11.03Z"/>
  <path class="cls-1" d="M188.59,52.28c-.09,0-.18-.05-.22-.14l-9.31-19.08c-.06-.12,0-.26.11-.32.12-.06.27,0,.32.11l9.31,19.08c.06.12,0,.26-.11.32-.03.02-.07.02-.11.02Z"/>
  <path class="cls-1" d="M183.94,54.6c-.09,0-.17-.05-.22-.13l-9.64-18.91c-.06-.12-.01-.26.11-.33.12-.06.26-.01.33.11l9.64,18.91c.06.12.01.26-.11.33-.03.02-.07.03-.11.03Z"/>
  <path class="cls-1" d="M246.97,31.03c-.11,0-.21-.07-.23-.18l-5.14-20.6c-.03-.13.05-.26.18-.29.14-.04.26.05.29.18l5.14,20.6c.03.13-.05.26-.18.29-.02,0-.04,0-.06,0Z"/>
  <path class="cls-1" d="M252.01,29.82c-.11,0-.21-.08-.24-.19l-4.78-20.69c-.03-.13.05-.26.18-.29.13-.04.26.05.29.18l4.78,20.69c.03.13-.05.26-.18.29-.02,0-.04,0-.05,0Z"/>
  <rect class="cls-1" x="126.12" y="70.98" width=".97" height="38.64" transform="translate(-28.42 102.51) rotate(-40)"/>
  <rect class="cls-1" x="168.83" y="41.07" width=".97" height="38.64" transform="translate(-7.51 92.75) rotate(-30)"/>
  <path class="cls-1" d="M116.22,117c-.12,0-.25-.05-.34-.14l-22.52-22.52c-.19-.19-.19-.5,0-.68.19-.19.5-.19.68,0l22.52,22.52c.19.19.19.5,0,.68-.09.09-.22.14-.34.14Z"/>
  <path class="cls-1" d="M123.89,95.1c-.07,0-.14-.03-.18-.08l-13.93-16.02c-.09-.1-.08-.25.02-.34.1-.09.25-.08.34.02l13.93,16.02c.09.1.08.25-.02.34-.05.04-.1.06-.16.06Z"/>
  <path class="cls-1" d="M131.84,88.44c-.07,0-.14-.03-.19-.09l-13.36-16.5c-.08-.1-.07-.26.04-.34.1-.08.25-.07.34.04l13.36,16.5c.08.1.07.26-.04.34-.04.04-.1.05-.15.05Z"/>
  <path class="cls-1" d="M120.01,98.54c-.07,0-.13-.03-.18-.08l-14.2-15.78c-.09-.1-.08-.25.02-.34.1-.09.25-.08.34.02l14.2,15.78c.09.1.08.25-.02.34-.05.04-.1.06-.16.06Z"/>
  <path class="cls-1" d="M112.42,105.62c-.06,0-.13-.02-.17-.07l-14.75-15.27c-.09-.1-.09-.25,0-.34.1-.09.25-.09.34,0l14.75,15.27c.09.1.09.25,0,.34-.05.05-.11.07-.17.07Z"/>
  <path class="cls-1" d="M116.18,102.05c-.06,0-.13-.03-.18-.08l-14.48-15.53c-.09-.1-.09-.25.01-.34.1-.09.25-.09.34.01l14.48,15.53c.09.1.09.25-.01.34-.05.04-.11.07-.17.07Z"/>
  <path class="cls-1" d="M154.49,84.89c-.15,0-.3-.07-.4-.21l-18.26-26.08c-.15-.22-.1-.52.12-.67.22-.15.52-.1.67.12l18.26,26.08c.15.22.1.52-.12.67-.09.06-.18.09-.28.09Z"/>
  <path class="cls-1" d="M135.9,85.21c-.07,0-.14-.03-.19-.09l-13.07-16.73c-.08-.11-.06-.26.04-.34s.26-.06.34.04l13.07,16.73c.08.11.06.26-.04.34-.04.03-.1.05-.15.05Z"/>
  <path class="cls-1" d="M144.18,78.96c-.07,0-.15-.03-.2-.1l-12.48-17.17c-.08-.11-.05-.26.05-.34.11-.08.26-.05.34.05l12.48,17.17c.08.11.05.26-.05.34-.04.03-.09.05-.14.05Z"/>
  <path class="cls-1" d="M140.01,82.05c-.07,0-.15-.03-.19-.1l-12.78-16.95c-.08-.11-.06-.26.05-.34.1-.08.26-.06.34.05l12.78,16.95c.08.11.06.26-.05.34-.04.03-.09.05-.15.05Z"/>
  <path class="cls-1" d="M165.8,64.65c-.08,0-.16-.04-.21-.12l-10.93-18.2c-.07-.11-.03-.26.08-.33.11-.07.26-.03.33.08l10.93,18.2c.07.11.03.26-.08.33-.04.02-.08.03-.12.03Z"/>
  <path class="cls-1" d="M161.38,67.36c-.08,0-.16-.04-.21-.11l-11.25-18c-.07-.11-.04-.26.08-.33.11-.07.26-.04.33.08l11.25,18c.07.11.04.26-.08.33-.04.02-.08.04-.13.04Z"/>
  <path class="cls-1" d="M152.68,73.01c-.08,0-.15-.04-.2-.11l-11.87-17.6c-.07-.11-.05-.26.07-.34.11-.08.26-.05.34.07l11.87,17.6c.07.11.05.26-.07.34-.04.03-.09.04-.14.04Z"/>
  <path class="cls-1" d="M157,70.15c-.08,0-.16-.04-.2-.11l-11.56-17.8c-.07-.11-.04-.26.07-.33.11-.07.26-.04.33.07l11.56,17.8c.07.11.04.26-.07.33-.04.03-.09.04-.13.04Z"/>
  <path class="cls-1" d="M94.57,124.42c-.06,0-.11-.02-.16-.06l-16.02-13.93c-.1-.09-.11-.24-.02-.34.09-.1.24-.11.34-.02l16.02,13.93c.1.09.11.24.02.34-.05.05-.12.08-.18.08Z"/>
  <path class="cls-1" d="M98.01,120.54c-.06,0-.12-.02-.16-.06l-15.78-14.2c-.1-.09-.11-.24-.02-.34.09-.1.24-.11.34-.02l15.78,14.2c.1.09.11.24.02.34-.05.05-.11.08-.18.08Z"/>
  <path class="cls-1" d="M105.08,112.95c-.06,0-.12-.02-.17-.07l-15.27-14.75c-.1-.09-.1-.25,0-.34.09-.1.25-.1.34,0l15.27,14.75c.1.09.1.25,0,.34-.05.05-.11.07-.17.07Z"/>
  <path class="cls-1" d="M101.51,116.71c-.06,0-.12-.02-.17-.07l-15.53-14.48c-.1-.09-.1-.24-.01-.34.09-.1.24-.1.34-.01l15.53,14.48c.1.09.1.24.01.34-.05.05-.11.08-.18.08Z"/>
  <rect class="cls-1" x="59.35" y="150.29" width=".97" height="38.64" transform="translate(-116.97 136.62) rotate(-60)"/>
  <path class="cls-1" d="M84.11,155.27c-.1,0-.19-.03-.28-.09l-26.08-18.26c-.22-.15-.27-.45-.12-.67.15-.22.45-.27.67-.12l26.08,18.26c.22.15.27.45.12.67-.09.13-.24.21-.4.21Z"/>
  <path class="cls-1" d="M64.12,166.33s-.09-.01-.12-.03l-18.2-10.93c-.11-.07-.15-.22-.08-.33.07-.11.22-.15.33-.08l18.2,10.93c.11.07.15.22.08.33-.05.08-.12.12-.21.12Z"/>
  <path class="cls-1" d="M58.93,175.32s-.08,0-.12-.03l-18.57-10.29c-.12-.07-.16-.21-.09-.33.07-.12.21-.16.33-.09l18.57,10.29c.12.07.16.21.09.33-.04.08-.13.12-.21.12Z"/>
  <path class="cls-1" d="M66.83,161.91s-.09-.01-.13-.04l-18-11.25c-.11-.07-.15-.22-.08-.33.07-.11.22-.15.33-.08l18,11.25c.11.07.15.22.08.33-.05.07-.12.11-.21.11Z"/>
  <path class="cls-1" d="M72.48,153.21s-.09-.01-.14-.04l-17.6-11.87c-.11-.07-.14-.23-.07-.34.07-.11.22-.14.34-.07l17.6,11.87c.11.07.14.23.07.34-.05.07-.12.11-.2.11Z"/>
  <path class="cls-1" d="M69.62,157.54s-.09-.01-.13-.04l-17.8-11.56c-.11-.07-.14-.22-.07-.33.07-.11.22-.14.33-.07l17.8,11.56c.11.07.14.22.07.33-.05.07-.12.11-.2.11Z"/>
  <path class="cls-1" d="M59.14,198.53c-.07,0-.14-.01-.2-.05l-28.86-13.46c-.24-.11-.35-.4-.23-.64.11-.24.4-.35.64-.23l28.86,13.46c.24.11.35.4.23.64-.08.18-.26.28-.44.28Z"/>
  <path class="cls-1" d="M56.46,179.88s-.08,0-.11-.03l-18.74-9.97c-.12-.06-.16-.21-.1-.33.06-.12.21-.16.33-.1l18.74,9.97c.12.06.16.21.1.33-.04.08-.13.13-.21.13Z"/>
  <path class="cls-1" d="M51.75,189.12s-.07,0-.11-.02l-19.08-9.31c-.12-.06-.17-.2-.11-.32.06-.12.2-.17.32-.11l19.08,9.31c.12.06.17.2.11.32-.04.09-.13.14-.22.14Z"/>
  <path class="cls-1" d="M54.06,184.48s-.07,0-.11-.03l-18.91-9.64c-.12-.06-.17-.21-.11-.33.06-.12.21-.17.33-.11l18.91,9.64c.12.06.17.21.11.33-.04.08-.13.13-.22.13Z"/>
  <path class="cls-1" d="M41.41,212.9s-.06,0-.09-.02l-19.82-7.61c-.12-.05-.19-.19-.14-.31.05-.13.19-.19.31-.14l19.82,7.61c.12.05.19.19.14.31-.04.1-.13.16-.23.16Z"/>
  <path class="cls-1" d="M43.31,208.07s-.06,0-.09-.02l-19.68-7.95c-.12-.05-.18-.19-.13-.31.05-.12.19-.18.31-.13l19.68,7.95c.12.05.18.19.13.31-.04.09-.13.15-.22.15Z"/>
  <path class="cls-1" d="M47.37,198.52s-.07,0-.1-.02l-19.39-8.64c-.12-.05-.18-.2-.12-.32.05-.12.2-.18.32-.12l19.39,8.63c.12.05.18.2.12.32-.04.09-.13.14-.22.14Z"/>
  <path class="cls-1" d="M45.3,203.28s-.06,0-.09-.02l-19.54-8.29c-.12-.05-.18-.19-.13-.32.05-.12.19-.18.32-.13l19.54,8.29c.12.05.18.19.13.32-.04.09-.13.15-.22.15Z"/>
  <path class="cls-1" d="M87.9,132.37c-.05,0-.11-.02-.15-.05l-16.5-13.36c-.1-.08-.12-.24-.04-.34.09-.1.24-.12.34-.04l16.5,13.36c.1.08.12.24.04.34-.05.06-.12.09-.19.09Z"/>
  <path class="cls-1" d="M84.67,136.43c-.05,0-.1-.02-.15-.05l-16.73-13.07c-.1-.08-.12-.23-.04-.34.08-.1.23-.12.34-.04l16.73,13.07c.1.08.12.23.04.34-.05.06-.12.09-.19.09Z"/>
  <path class="cls-1" d="M78.43,144.71s-.1-.02-.14-.05l-17.17-12.48c-.11-.08-.13-.23-.05-.34.08-.11.23-.13.34-.05l17.17,12.48c.11.08.13.23.05.34-.05.07-.12.1-.2.1Z"/>
  <path class="cls-1" d="M81.52,140.54c-.05,0-.1-.02-.15-.05l-16.95-12.78c-.11-.08-.13-.23-.05-.34.08-.11.23-.13.34-.05l16.95,12.78c.11.08.13.23.05.34-.05.06-.12.1-.19.1Z"/>
  <rect class="cls-1" x="23.82" y="247.9" width=".97" height="38.64" transform="translate(-243.07 244.73) rotate(-80)"/>
  <path class="cls-1" d="M55.95,223.71s-.06,0-.08-.01l-36.31-13.21c-.12-.05-.19-.19-.14-.31.05-.13.19-.19.31-.14l36.31,13.21c.12.05.19.19.14.31-.04.1-.13.16-.23.16Z"/>
  <path class="cls-1" d="M33.38,294.67s-.03,0-.04,0l-31.72-2.78c-.27-.02-.46-.26-.44-.52.02-.27.24-.45.52-.44l31.72,2.78c.27.02.46.26.44.52-.02.25-.23.44-.48.44Z"/>
  <path class="cls-1" d="M25.33,272.91s-.02,0-.04,0l-20.97-3.32c-.13-.02-.22-.14-.2-.28.02-.13.14-.22.28-.2l20.97,3.32c.13.02.22.14.2.28-.02.12-.12.2-.24.2Z"/>
  <path class="cls-1" d="M27.13,262.69s-.03,0-.05,0l-20.84-4.05c-.13-.03-.22-.15-.19-.28.02-.13.14-.23.28-.19l20.84,4.05c.13.03.22.15.19.28-.02.12-.12.2-.24.2Z"/>
  <path class="cls-1" d="M24.56,278.04s-.02,0-.03,0l-21.02-2.95c-.13-.02-.22-.14-.21-.27.02-.13.14-.22.27-.21l21.02,2.95c.13.02.22.14.21.27-.02.12-.12.21-.24.21Z"/>
  <path class="cls-1" d="M23.3,288.34h-.03s-21.11-2.22-21.11-2.22c-.13-.01-.23-.13-.22-.27.01-.13.14-.23.27-.22l21.11,2.22c.13.01.23.13.22.27-.01.12-.12.22-.24.22Z"/>
  <path class="cls-1" d="M23.89,283.18s-.02,0-.03,0l-21.07-2.58c-.13-.02-.23-.14-.21-.27.02-.13.14-.22.27-.21l21.07,2.58c.13.02.23.14.21.27-.02.12-.12.21-.24.21Z"/>
  <path class="cls-1" d="M42.05,245.47s-.08,0-.13-.02l-30.76-8.24c-.26-.07-.41-.33-.34-.59.07-.26.33-.41.59-.34l30.76,8.24c.26.07.41.33.34.59-.06.22-.25.36-.47.36Z"/>
  <path class="cls-1" d="M28.17,257.61s-.03,0-.05,0l-20.76-4.42c-.13-.03-.21-.16-.19-.29.03-.13.15-.21.29-.19l20.76,4.42c.13.03.21.16.19.29-.02.11-.12.19-.24.19Z"/>
  <path class="cls-1" d="M30.5,247.5s-.04,0-.06,0l-20.6-5.14c-.13-.03-.21-.16-.18-.29.03-.13.16-.21.29-.18l20.6,5.14c.13.03.21.16.18.29-.03.11-.13.18-.23.18Z"/>
  <path class="cls-1" d="M29.29,252.55s-.04,0-.05,0l-20.68-4.78c-.13-.03-.21-.16-.18-.29.03-.13.16-.22.29-.18l20.68,4.78c.13.03.21.16.18.29-.03.11-.12.19-.24.19Z"/>
  <path class="cls-1" d="M37.86,222.64s-.05,0-.08-.01l-20.07-6.91c-.13-.04-.19-.18-.15-.31.04-.13.19-.19.31-.15l20.07,6.91c.13.04.19.18.15.31-.03.1-.13.16-.23.16Z"/>
  <path class="cls-1" d="M36.22,227.56s-.05,0-.07-.01l-20.19-6.56c-.13-.04-.2-.18-.16-.3.04-.13.18-.2.3-.16l20.19,6.56c.13.04.2.18.16.3-.03.1-.13.17-.23.17Z"/>
  <path class="cls-1" d="M33.19,237.48s-.04,0-.07,0l-20.41-5.85c-.13-.04-.2-.17-.17-.3.04-.13.16-.21.3-.17l20.41,5.85c.13.04.2.17.17.3-.03.11-.13.17-.23.17Z"/>
  <path class="cls-1" d="M34.66,232.51s-.05,0-.07-.01l-20.3-6.21c-.13-.04-.2-.17-.16-.3.04-.13.18-.2.3-.16l20.3,6.21c.13.04.2.17.16.3-.03.1-.13.17-.23.17Z"/>
  <path class="cls-1" d="M21.72,314.22l-21.23-.37c-.13,0-.24-.11-.24-.25,0-.13.09-.26.25-.24l21.23.37c.13,0,.24.11.24.25,0,.13-.11.24-.24.24Z"/>
  <path class="cls-1" d="M21.85,309.03l-21.22-.74c-.13,0-.24-.12-.23-.25,0-.13.14-.24.25-.23l21.22.74c.13,0,.24.12.23.25,0,.13-.11.23-.24.23Z"/>
  <path class="cls-1" d="M22.4,298.67h-.02s-21.18-1.48-21.18-1.48c-.13,0-.23-.12-.22-.26,0-.13.13-.25.26-.22l21.18,1.48c.13,0,.23.12.22.26,0,.13-.11.23-.24.23Z"/>
  <path class="cls-1" d="M22.08,303.85l-21.21-1.11c-.13,0-.24-.12-.23-.25,0-.13.13-.21.25-.23l21.2,1.11c.13,0,.24.12.23.25,0,.13-.11.23-.24.23Z"/>
  <rect class="cls-1" x="37.32" y="197.54" width=".97" height="38.64" transform="translate(-178.91 178.21) rotate(-70)"/>
  <path class="cls-1" d="M318.87,120.45c-.13,0-.24-.11-.24-.24v-28.59c0-.13.11-.24.24-.24s.24.11.24.24v28.59c0,.13-.11.24-.24.24Z"/>
  <path class="cls-1" d="M561.17,179.75c-.17,0-.33-.09-.42-.24-.13-.23-.05-.53.18-.66l33.46-19.32c.23-.13.53-.06.66.18.13.23.05.53-.18.66l-33.46,19.32c-.08.04-.16.07-.24.07Z"/>
  <path class="cls-1" d="M498.72,105.31c-.11,0-.22-.04-.31-.11-.21-.17-.23-.48-.06-.68l24.84-29.6c.17-.21.48-.23.68-.06.21.17.23.48.06.68l-24.84,29.6c-.1.11-.23.17-.37.17Z"/>
  <path class="cls-1" d="M458.77,77.34c-.08,0-.17-.02-.24-.07-.23-.13-.31-.43-.18-.66l19.32-33.46c.13-.23.43-.31.66-.18.23.13.31.43.18.66l-19.32,33.46c-.09.16-.25.24-.42.24Z"/>
  <path class="cls-1" d="M458.77,77.34c-.08,0-.17-.02-.24-.07-.23-.13-.31-.43-.18-.66l19.32-33.46c.13-.23.43-.31.66-.18.23.13.31.43.18.66l-19.32,33.46c-.09.16-.25.24-.42.24Z"/>
  <path class="cls-1" d="M414.56,56.73c-.05,0-.11,0-.17-.03-.25-.09-.38-.37-.29-.62l13.22-36.31c.09-.25.37-.38.62-.29.25.09.38.37.29.62l-13.22,36.31c-.07.2-.26.32-.45.32Z"/>
  <path class="cls-1" d="M318.87,39.85c-.27,0-.48-.22-.48-.48V.73c0-.27.22-.48.48-.48s.48.22.48.48v38.64c0,.27-.22.48-.48.48Z"/>
  <path class="cls-1" d="M104.54,139.56c-.05,0-.11-.02-.16-.06l-29.6-24.83c-.1-.09-.12-.24-.03-.34.09-.1.24-.11.34-.03l29.6,24.83c.1.09.12.24.03.34-.05.06-.12.09-.19.09Z"/>
  <rect class="cls-1" x="89.26" y="107.84" width=".97" height="38.64" transform="translate(-65.35 114.17) rotate(-50)"/>
  <path class="cls-1" d="M637.29,319.4h-38.64c-.13,0-.24-.11-.24-.24s.11-.24.24-.24h38.64c.13,0,.24.11.24.24s-.11.24-.24.24Z"/>
  <path class="cls-1" d="M39.52,319.64H.88c-.27,0-.48-.22-.48-.48s.22-.48.48-.48h38.64c.27,0,.48.22.48.48s-.22.48-.48.48Z"/>
  <path d="M255.85,319.64H83.46c-1.19,0-2.16-.22-2.16-.48s.97-.48,2.16-.48h172.39c1.19,0,2.16.22,2.16.48s-.97.48-2.16.48Z"/>
  <path d="M381.4,318.19h172.39c1.19,0,2.16.22,2.16.48s-.97.48-2.16.48h-172.39c-1.19,0-2.16-.22-2.16-.48s.97-.48,2.16-.48Z"/>
  <path d="M338.19,319.4h-38.64c-.13,0-.24-.11-.24-.24s.11-.24.24-.24h38.64c.13,0,.24.11.24.24s-.11.24-.24.24Z"/>
  <path class="cls-1" d="M581.78,223.95c-.2,0-.38-.12-.45-.32-.09-.25.04-.53.29-.62l36.31-13.21c.25-.09.53.04.62.29.09.25-.04.53-.29.62l-36.31,13.21c-.05.02-.11.03-.17.03Z"/>
  <path class="cls-1" d="M284.32,123.47c-.12,0-.22-.08-.24-.2l-4.97-28.15c-.02-.13.06-.26.2-.28.13-.03.26.07.28.2l4.97,28.15c.02.13-.06.26-.2.28-.01,0-.03,0-.04,0Z"/>
  <path class="cls-1" d="M353.42,123.47s-.03,0-.04,0c-.13-.02-.22-.15-.2-.28l4.96-28.15c.02-.13.14-.22.28-.2.13.02.22.15.2.28l-4.96,28.15c-.02.12-.12.2-.24.2Z"/>
  <path class="cls-1" d="M250.82,132.45c-.1,0-.19-.06-.23-.16l-9.78-26.86c-.05-.13.02-.26.14-.31.13-.04.26.02.31.14l9.78,26.86c.05.13-.02.26-.14.31-.03,0-.06.01-.08.01Z"/>
  <path class="cls-1" d="M219.39,147.1c-.08,0-.16-.04-.21-.12l-14.29-24.76c-.07-.12-.03-.26.09-.33.11-.07.26-.03.33.09l14.29,24.76c.07.12.03.26-.09.33-.04.02-.08.03-.12.03Z"/>
  <path class="cls-1" d="M386.92,132.45s-.06,0-.08-.01c-.12-.05-.19-.19-.14-.31l9.78-26.86c.05-.13.19-.19.31-.14.12.05.19.19.14.31l-9.78,26.86c-.04.1-.13.16-.23.16Z"/>
  <path class="cls-1" d="M418.35,147.1s-.08-.01-.12-.03c-.12-.07-.16-.22-.09-.33l14.29-24.76c.07-.12.22-.15.33-.09.12.07.16.22.09.33l-14.29,24.76c-.05.08-.13.12-.21.12Z"/>
  <path class="cls-1" d="M446.76,166.99c-.05,0-.11-.02-.16-.06-.1-.09-.12-.24-.03-.34l18.38-21.9c.09-.1.24-.11.34-.03.1.09.12.24.03.34l-18.38,21.9c-.05.06-.12.09-.19.09Z"/>
  <path class="cls-1" d="M471.28,191.52c-.07,0-.14-.03-.19-.09-.09-.1-.07-.26.03-.34l21.9-18.38c.1-.09.25-.07.34.03.09.1.07.26-.03.34l-21.9,18.38s-.1.06-.16.06Z"/>
  <path class="cls-1" d="M514.8,284.85c-.12,0-.22-.08-.24-.2-.02-.13.06-.26.2-.28l28.15-4.96c.13-.03.26.06.28.2.02.13-.06.26-.2.28l-28.15,4.96s-.03,0-.04,0Z"/>
  <path class="cls-1" d="M505.82,251.36c-.1,0-.19-.06-.23-.16-.05-.13.02-.26.14-.31l26.86-9.78c.13-.04.26.02.31.14.05.13-.02.26-.14.31l-26.86,9.78s-.06.01-.08.01Z"/>
  <path class="cls-1" d="M491.17,219.92c-.08,0-.16-.04-.21-.12-.07-.12-.03-.26.09-.33l24.76-14.29c.11-.07.26-.03.33.09.07.12.03.26-.09.33l-24.76,14.29s-.08.03-.12.03Z"/>
  <path class="cls-1" d="M471.28,191.52c-.07,0-.14-.03-.19-.09-.09-.1-.07-.26.03-.34l21.9-18.38c.1-.09.25-.07.34.03.09.1.07.26-.03.34l-21.9,18.38s-.1.06-.16.06Z"/>
  <path class="cls-1" d="M146.57,219.92s-.08-.01-.12-.03l-24.76-14.29c-.12-.07-.16-.22-.09-.33.07-.12.22-.16.33-.09l24.76,14.29c.12.07.16.22.09.33-.05.08-.13.12-.21.12Z"/>
  <path class="cls-1" d="M166.46,191.52c-.05,0-.11-.02-.16-.06l-21.9-18.38c-.1-.09-.12-.24-.03-.34.09-.1.24-.11.34-.03l21.9,18.38c.1.09.12.24.03.34-.05.06-.12.09-.19.09Z"/>
  <path class="cls-1" d="M131.91,251.36s-.06,0-.08-.01l-26.86-9.78c-.12-.05-.19-.19-.14-.31.05-.13.19-.19.31-.14l26.86,9.78c.12.05.19.19.14.31-.04.1-.13.16-.23.16Z"/>
  <path class="cls-1" d="M190.98,166.99c-.07,0-.14-.03-.19-.09l-18.38-21.9c-.09-.1-.07-.26.03-.34.1-.09.25-.07.34.03l18.38,21.9c.09.1.07.26-.03.34-.05.04-.1.06-.16.06Z"/>
  <path class="cls-1" d="M122.94,284.85s-.03,0-.04,0l-28.15-4.96c-.13-.02-.22-.15-.2-.28.02-.13.14-.22.28-.2l28.15,4.96c.13.02.22.15.2.28-.02.12-.12.2-.24.2Z"/>
  <path class="cls-1" d="M601.52,227.56c-.1,0-.2-.07-.23-.17-.04-.13.03-.26.16-.3l20.19-6.56c.13-.04.26.03.3.16.04.13-.03.26-.16.3l-20.19,6.56s-.05.01-.07.01Z"/>
  <g>
    <polygon points="409.02 68.24 408.56 68.07 408.91 67.12 409.36 67.29 409.02 68.24"/>
    <rect x="450.95" y="87.42" width=".49" height=".48" transform="translate(149.88 434.74) rotate(-60.03)"/>
    <rect x="450.95" y="87.42" width=".49" height=".48" transform="translate(149.88 434.74) rotate(-60.03)"/>
    <g>
      <g>
        <path d="M401.95,73.95l-1.13-.41,2.64-7.23c-.37.16-.82.29-1.36.39-.54.1-1.01.15-1.41.15l.4-1.1c.74-.07,1.43-.22,2.06-.47.63-.25,1.12-.54,1.46-.87l.73.27-3.39,9.27Z"/>
        <path d="M402.1,74.26l-1.59-.58,2.55-6.96c-.27.08-.58.16-.91.22-.55.1-1.04.15-1.45.15h-.35l.57-1.57h.15c.72-.08,1.39-.23,1.99-.47.6-.24,1.06-.51,1.38-.82l.11-.1,1.1.4-3.56,9.73ZM401.13,73.39l.68.25,3.23-8.82-.37-.13c-.35.3-.83.58-1.42.81-.61.24-1.27.4-1.98.47l-.23.62c.3-.02.64-.06,1.01-.13.52-.09.96-.22,1.31-.37l.52-.23-2.76,7.53Z"/>
      </g>
      <g>
        <path d="M408.62,76.39l-1.13-.42,2.64-7.23c-.37.16-.82.29-1.36.39-.54.1-1.01.15-1.41.15l.4-1.1c.74-.07,1.43-.22,2.06-.47.63-.25,1.12-.54,1.46-.87l.73.27-3.39,9.27Z"/>
        <path d="M408.77,76.7l-1.59-.58,2.55-6.96c-.27.08-.58.16-.91.22-.57.1-1.04.15-1.45.15h-.35l.57-1.57h.15c.72-.08,1.39-.23,1.99-.47.6-.24,1.07-.51,1.38-.82l.11-.1,1.1.4-3.56,9.73ZM407.8,75.83l.68.25,3.23-8.82-.37-.13c-.35.31-.82.57-1.42.81-.6.24-1.27.4-1.97.48l-.23.62c.3-.02.64-.07,1.01-.13.52-.09.96-.22,1.31-.37l.52-.23-2.76,7.53Z"/>
      </g>
    </g>
    <g>
      <path d="M412.69,72.69c.4-1.09.83-1.93,1.3-2.51.47-.58.99-.97,1.57-1.17.57-.2,1.2-.18,1.87.07.5.18.89.44,1.19.78.3.34.5.74.61,1.2.1.46.13.99.07,1.58-.06.59-.26,1.34-.59,2.26-.4,1.08-.83,1.92-1.29,2.5-.47.58-.99.98-1.56,1.18-.58.2-1.2.18-1.88-.07-.89-.33-1.47-.9-1.75-1.72-.33-.99-.17-2.35.46-4.09ZM413.85,73.12c-.56,1.52-.75,2.59-.58,3.22.17.63.52,1.04,1.04,1.23.52.19,1.05.1,1.59-.28.54-.37,1.09-1.32,1.64-2.83.56-1.52.75-2.6.58-3.23-.17-.63-.52-1.04-1.05-1.23-.52-.19-1.02-.12-1.49.21-.6.42-1.17,1.39-1.73,2.9Z"/>
      <path d="M415.05,78.95c-.37,0-.76-.07-1.16-.22-.96-.35-1.6-.98-1.89-1.88-.34-1.04-.19-2.47.46-4.25.41-1.11.86-1.98,1.34-2.58.49-.62,1.06-1.04,1.68-1.25.63-.22,1.31-.19,2.03.07.53.19.97.48,1.29.84.33.36.55.8.67,1.31.11.49.14,1.05.07,1.66-.06.61-.26,1.37-.61,2.32-.4,1.11-.85,1.97-1.33,2.57-.49.62-1.05,1.04-1.67,1.26-.28.1-.58.15-.89.15ZM416.36,69.11c-.25,0-.49.04-.72.12-.53.18-1.02.55-1.46,1.1-.45.56-.88,1.39-1.26,2.45-.61,1.67-.77,2.99-.46,3.93.25.76.78,1.27,1.6,1.57.62.23,1.2.25,1.72.07.53-.19,1.02-.56,1.45-1.1.45-.56.87-1.38,1.26-2.43.33-.89.52-1.63.58-2.2.06-.56.03-1.07-.07-1.51-.1-.42-.28-.79-.55-1.09-.27-.31-.64-.54-1.1-.71-.34-.12-.67-.19-.99-.19ZM414.85,77.91c-.21,0-.41-.04-.61-.11-.6-.22-1-.69-1.19-1.4-.19-.69,0-1.79.58-3.37.58-1.58,1.17-2.57,1.81-3.02.54-.37,1.11-.45,1.71-.23.61.22,1.01.69,1.2,1.4.19.69,0,1.79-.58,3.37-.58,1.58-1.14,2.54-1.73,2.94-.4.28-.8.42-1.2.42ZM416.51,70.14c-.27,0-.53.09-.79.27-.55.39-1.1,1.33-1.64,2.79-.53,1.46-.73,2.5-.57,3.08.15.56.44.91.89,1.07.44.16.89.08,1.37-.25.49-.34,1.02-1.26,1.55-2.71.54-1.47.73-2.5.57-3.08-.15-.55-.45-.9-.9-1.07-.16-.06-.32-.09-.48-.09Z"/>
    </g>
    <g>
      <g>
        <path d="M358.59,59.83l-1.19-.21,1.35-7.58c-.34.22-.76.43-1.27.62-.51.19-.97.32-1.36.39l.2-1.15c.72-.19,1.37-.47,1.95-.82.58-.36,1.01-.72,1.29-1.11l.77.14-1.73,9.72Z"/>
        <path d="M358.78,60.11l-1.67-.3,1.3-7.3c-.25.13-.54.25-.86.37-.52.19-1,.33-1.4.4l-.34.06.29-1.64.15-.04c.7-.19,1.33-.46,1.88-.8.55-.34.96-.69,1.22-1.04l.09-.12,1.15.21-1.82,10.2ZM357.68,59.43l.71.13,1.65-9.24-.38-.07c-.3.36-.71.71-1.26,1.05-.55.34-1.18.61-1.86.81l-.11.65c.29-.07.62-.17.97-.31.5-.18.91-.38,1.22-.59l.47-.31-1.41,7.89Z"/>
      </g>
      <g>
        <path d="M362.44,55.59c.2-1.15.49-2.04.85-2.7.36-.66.81-1.13,1.34-1.43.53-.3,1.15-.38,1.85-.26.52.09.96.28,1.31.56.35.28.62.64.81,1.08.19.44.3.96.34,1.55.04.59-.02,1.37-.19,2.33-.2,1.14-.48,2.03-.84,2.69-.36.66-.8,1.13-1.34,1.43-.53.3-1.15.38-1.86.26-.93-.17-1.61-.63-2.02-1.4-.49-.92-.58-2.29-.26-4.11ZM363.66,55.81c-.28,1.59-.29,2.68,0,3.27.28.59.69.94,1.24,1.04.55.1,1.05-.09,1.52-.55.47-.46.84-1.49,1.12-3.07.28-1.59.29-2.69,0-3.28-.28-.59-.69-.94-1.25-1.03-.55-.1-1.02.06-1.43.46-.51.52-.91,1.57-1.2,3.16Z"/>
        <path d="M365.32,61.39c-.21,0-.42-.02-.65-.06-1.01-.18-1.74-.69-2.19-1.52-.52-.97-.61-2.4-.28-4.26.21-1.16.5-2.1.87-2.77.38-.69.86-1.21,1.43-1.52.58-.32,1.26-.42,2.01-.28.56.1,1.03.3,1.42.61.39.3.68.7.88,1.17.19.46.32,1.01.36,1.62.05.61-.02,1.41-.19,2.39-.21,1.16-.5,2.09-.87,2.76-.38.69-.86,1.21-1.43,1.53-.41.23-.87.35-1.37.35ZM365.87,51.39c-.42,0-.79.09-1.13.28-.49.27-.91.72-1.24,1.33-.35.63-.62,1.52-.82,2.63-.31,1.75-.24,3.08.23,3.95.38.7.98,1.12,1.85,1.27.66.12,1.22.04,1.7-.23.49-.28.91-.73,1.24-1.34.34-.63.62-1.51.81-2.62.17-.93.23-1.7.19-2.27-.04-.56-.15-1.06-.33-1.47-.17-.41-.41-.73-.74-.98-.32-.25-.73-.42-1.2-.51-.2-.03-.39-.05-.57-.05ZM365.17,60.39c-.11,0-.22,0-.33-.03-.63-.11-1.1-.51-1.41-1.17-.3-.64-.31-1.76-.01-3.42.3-1.66.71-2.73,1.26-3.29.47-.46,1.02-.64,1.65-.53.63.11,1.11.51,1.43,1.17.3.64.31,1.76.01,3.42-.29,1.65-.68,2.7-1.19,3.2-.43.43-.9.64-1.4.64ZM363.9,55.85c-.27,1.53-.28,2.59-.03,3.13.24.52.59.82,1.06.9.47.08.9-.07,1.3-.48.43-.43.78-1.42,1.06-2.94.27-1.53.28-2.59.03-3.13-.24-.52-.6-.81-1.07-.9-.47-.08-.87.04-1.22.39-.47.48-.85,1.49-1.13,3.03Z"/>
      </g>
    </g>
    <g>
      <path d="M369.93,56.9c.2-1.15.49-2.05.85-2.7.36-.66.81-1.13,1.34-1.43.53-.3,1.15-.38,1.85-.26.52.09.96.28,1.31.56.35.28.62.64.81,1.08.19.44.3.95.34,1.55.04.59-.02,1.37-.19,2.33-.2,1.14-.48,2.03-.84,2.69-.36.66-.8,1.13-1.34,1.43-.53.3-1.15.38-1.86.26-.93-.17-1.61-.63-2.02-1.39-.49-.92-.58-2.29-.26-4.11ZM371.15,57.12c-.28,1.59-.29,2.68,0,3.27.28.59.69.94,1.24,1.03.55.1,1.05-.09,1.52-.55.47-.46.84-1.49,1.12-3.07.28-1.59.29-2.69,0-3.28-.28-.59-.69-.93-1.25-1.03-.55-.1-1.02.06-1.43.46-.51.52-.91,1.57-1.2,3.16Z"/>
      <path d="M372.82,62.7c-.21,0-.43-.02-.65-.06-1.01-.18-1.74-.69-2.19-1.52-.52-.97-.61-2.4-.28-4.26.21-1.16.5-2.1.87-2.78.38-.69.86-1.21,1.43-1.52.58-.32,1.25-.42,2.02-.28.56.1,1.03.3,1.42.61.38.3.68.7.88,1.17.19.46.31,1,.36,1.62.05.61-.02,1.41-.19,2.39-.21,1.16-.5,2.09-.87,2.76-.38.69-.86,1.21-1.43,1.53-.41.23-.87.34-1.37.34ZM373.36,52.7c-.42,0-.79.09-1.13.28-.49.27-.91.72-1.24,1.33-.35.63-.62,1.52-.82,2.63-.31,1.75-.24,3.08.23,3.95.38.7.99,1.12,1.85,1.27.65.12,1.22.04,1.7-.23.49-.27.91-.72,1.24-1.34.34-.63.62-1.51.81-2.62.17-.93.23-1.7.19-2.27-.04-.57-.15-1.06-.33-1.47-.17-.4-.42-.73-.74-.98-.32-.25-.73-.42-1.2-.51-.2-.03-.39-.05-.57-.05ZM372.67,61.69c-.11,0-.22,0-.33-.03-.63-.11-1.1-.51-1.41-1.17-.3-.64-.31-1.76-.01-3.42.3-1.66.71-2.73,1.26-3.29.47-.46,1.02-.64,1.65-.53.63.11,1.11.51,1.43,1.17.3.64.31,1.76.01,3.42-.29,1.65-.68,2.7-1.19,3.2-.43.43-.9.64-1.4.64ZM371.39,57.16c-.27,1.53-.28,2.58-.03,3.13.24.52.59.82,1.06.9.47.08.9-.07,1.3-.48.43-.42.78-1.41,1.05-2.94.27-1.54.28-2.59.03-3.13-.24-.52-.6-.81-1.07-.9-.47-.08-.87.05-1.22.39-.47.48-.85,1.5-1.13,3.03Z"/>
    </g>
    <g>
      <g>
        <path d="M485.08,118.21l-.92-.78,4.96-5.89c-.4.03-.87,0-1.41-.1-.54-.09-1-.21-1.37-.34l.75-.89c.72.19,1.42.28,2.1.26.68-.02,1.23-.12,1.67-.31l.59.5-6.36,7.55Z"/>
        <path d="M485.11,118.55l-1.29-1.09,4.77-5.67c-.28-.01-.59-.05-.93-.11-.57-.1-1.03-.21-1.42-.35l-.33-.12,1.08-1.28.15.04c.7.19,1.39.27,2.03.25.64-.02,1.17-.12,1.58-.29l.14-.06.9.75-6.67,7.92ZM484.5,117.4l.55.47,6.05-7.18-.3-.25c-.44.17-.98.26-1.62.28-.65.02-1.33-.06-2.02-.23l-.42.5c.29.08.62.16,1,.22.52.09.98.12,1.35.1l.57-.04-5.17,6.14Z"/>
      </g>
      <g>
        <path d="M489.09,118.19l1.03.65c-.33.61-.47,1.14-.41,1.59.06.45.27.82.64,1.13.43.37.93.52,1.48.48.55-.05,1.02-.3,1.39-.74.36-.42.51-.89.47-1.4-.04-.51-.28-.94-.71-1.3-.18-.15-.42-.3-.74-.45l.78-.72c.06.06.1.1.14.14.39.33.83.53,1.32.59.49.06.91-.12,1.27-.55.29-.34.41-.72.36-1.13-.04-.42-.24-.77-.61-1.08-.36-.3-.75-.44-1.18-.42-.43.02-.87.23-1.32.63l-.78-.94c.63-.52,1.29-.79,1.98-.79.69,0,1.33.25,1.92.75.41.35.71.75.91,1.22.2.47.26.93.19,1.39-.07.46-.25.86-.54,1.2-.27.33-.61.55-1.01.67-.4.12-.84.11-1.31-.02.36.48.52.98.5,1.51-.03.53-.24,1.04-.65,1.53-.55.66-1.26,1.01-2.12,1.06-.86.05-1.66-.23-2.39-.84-.66-.56-1.04-1.21-1.15-1.97-.1-.76.08-1.48.54-2.16Z"/>
        <path d="M491.89,123.42c-.84,0-1.63-.31-2.35-.91-.7-.59-1.12-1.31-1.23-2.13-.11-.82.08-1.6.58-2.33l.13-.19,1.42.9-.11.2c-.31.56-.44,1.05-.38,1.44.05.39.23.71.56.98.39.33.82.47,1.3.42.49-.04.89-.26,1.23-.66.32-.38.45-.78.41-1.22-.04-.45-.24-.82-.62-1.14-.16-.13-.39-.27-.69-.41l-.32-.15,1.22-1.13.16.17c.05.05.09.09.12.12.35.3.76.48,1.19.53.41.05.75-.1,1.06-.47.24-.29.35-.6.31-.95-.03-.35-.21-.65-.52-.92-.31-.26-.65-.39-1.01-.36-.37.02-.77.21-1.17.57l-.19.16-1.1-1.32.19-.15c.67-.56,1.39-.84,2.14-.85h.01c.74,0,1.43.27,2.07.8.44.37.77.81.98,1.31.21.51.28,1.02.2,1.52-.08.5-.28.94-.6,1.32-.3.36-.68.61-1.12.74-.28.08-.58.12-.89.09.19.38.27.78.25,1.19-.03.58-.27,1.14-.71,1.67-.59.71-1.37,1.09-2.29,1.15-.07,0-.15,0-.22,0ZM489.17,118.53c-.34.57-.46,1.16-.38,1.79.1.71.45,1.3,1.06,1.82.69.58,1.43.85,2.22.79.8-.05,1.44-.37,1.95-.98.38-.45.57-.9.6-1.38.02-.47-.13-.93-.45-1.35l-.43-.57.68.19c.43.12.82.12,1.18.02.35-.11.65-.31.89-.59.26-.31.42-.67.49-1.08.07-.42.01-.83-.17-1.26-.18-.43-.46-.81-.84-1.13-.54-.46-1.13-.69-1.75-.69h-.01c-.56,0-1.11.2-1.64.59l.47.56c.42-.33.85-.5,1.27-.53.5-.03.95.13,1.35.47.41.35.64.76.69,1.24.05.48-.09.92-.42,1.31-.41.49-.92.7-1.49.64-.53-.06-1.01-.28-1.44-.63l-.36.33c.19.11.35.21.47.32.48.4.74.89.79,1.47.05.57-.12,1.1-.52,1.58-.42.49-.94.77-1.55.83-.63.05-1.17-.12-1.66-.53-.41-.35-.66-.78-.72-1.28-.06-.44.05-.96.33-1.54l-.64-.4Z"/>
      </g>
    </g>
    <g>
      <path d="M496.37,121.34c.75-.89,1.44-1.53,2.08-1.92.64-.39,1.26-.58,1.87-.57.61,0,1.19.24,1.73.71.4.34.69.72.86,1.14.17.42.22.87.16,1.34s-.22.98-.47,1.51c-.26.54-.7,1.18-1.33,1.92-.74.88-1.43,1.52-2.07,1.91-.64.39-1.26.58-1.87.57-.61,0-1.19-.24-1.74-.71-.73-.61-1.08-1.35-1.05-2.22.03-1.04.64-2.27,1.83-3.68ZM497.32,122.14c-1.04,1.23-1.59,2.18-1.64,2.83-.05.65.13,1.16.55,1.51.42.36.95.45,1.59.28.64-.17,1.47-.87,2.51-2.1,1.04-1.24,1.59-2.18,1.65-2.83.05-.65-.14-1.16-.57-1.52-.42-.36-.91-.46-1.47-.32-.7.19-1.58.9-2.62,2.14Z"/>
      <path d="M497.37,128.19h-.04c-.67-.01-1.3-.27-1.89-.76-.78-.66-1.16-1.47-1.14-2.41.03-1.09.67-2.39,1.89-3.83.76-.91,1.48-1.57,2.14-1.97.68-.41,1.34-.61,2-.6.66.01,1.3.27,1.89.76.43.36.74.78.93,1.23.18.46.24.95.18,1.46-.06.5-.23,1.03-.5,1.59-.27.55-.73,1.22-1.36,1.97-.76.9-1.47,1.56-2.13,1.96-.66.4-1.32.61-1.96.61ZM496.56,121.5c-1.15,1.36-1.75,2.55-1.77,3.54-.02.8.29,1.46.97,2.03.5.42,1.04.64,1.59.65.55,0,1.15-.17,1.74-.54.61-.37,1.29-1,2.01-1.86.61-.72,1.05-1.35,1.3-1.87.24-.51.4-.99.45-1.44.05-.43,0-.84-.15-1.22-.15-.38-.42-.73-.79-1.04-.5-.42-1.03-.64-1.58-.65-.55,0-1.15.17-1.74.53-.61.37-1.3,1-2.02,1.86ZM497.25,127.09c-.44,0-.83-.14-1.17-.42-.49-.41-.7-.99-.64-1.72.06-.71.61-1.68,1.7-2.97,1.08-1.29,1.98-2.01,2.74-2.22.63-.17,1.2-.04,1.69.36.49.42.71.99.65,1.72-.06.71-.61,1.68-1.7,2.97-1.08,1.28-1.94,1.99-2.63,2.18-.22.06-.44.09-.64.09ZM497.51,122.3c-1,1.19-1.54,2.1-1.59,2.69-.05.57.1,1,.47,1.31.36.31.81.38,1.37.24.58-.15,1.39-.83,2.38-2.02,1.01-1.19,1.54-2.1,1.59-2.7.05-.57-.11-1-.48-1.31-.36-.31-.77-.4-1.25-.27-.65.17-1.49.87-2.49,2.06Z"/>
    </g>
    <g>
      <g>
        <path d="M445.88,90.17l-1.04-.61,3.86-6.66c-.39.09-.86.14-1.41.15-.55,0-1.02-.03-1.41-.1l.59-1.01c.74.06,1.45.03,2.11-.11.66-.14,1.19-.34,1.59-.6l.67.39-4.95,8.54Z"/>
        <path d="M445.97,90.5l-1.46-.85,3.72-6.41c-.28.04-.6.05-.93.06-.55,0-1.04-.03-1.45-.1l-.34-.06.84-1.44h.15c.72.08,1.4.04,2.04-.09.63-.13,1.14-.32,1.5-.56l.12-.08,1.01.59-5.19,8.96ZM445.17,89.47l.63.36,4.71-8.13-.34-.19c-.4.24-.92.42-1.54.55-.64.13-1.32.17-2.03.13l-.33.57c.3.03.65.05,1.02.05.53,0,.98-.05,1.35-.14l.55-.13-4.02,6.94Z"/>
      </g>
      <g>
        <path d="M454.59,93.88l-.58,1-5.62-3.26c.14-.26.32-.47.54-.65.37-.3.81-.54,1.34-.73.53-.19,1.23-.35,2.11-.5,1.37-.22,2.34-.46,2.92-.71.58-.25.99-.58,1.22-.97.24-.41.29-.85.16-1.3-.13-.46-.43-.82-.91-1.1-.5-.29-.99-.37-1.47-.25-.48.13-.87.46-1.19.99l-1.01-.73c.54-.76,1.17-1.21,1.89-1.35.72-.14,1.49.02,2.3.49.82.47,1.33,1.07,1.55,1.8.21.73.13,1.43-.26,2.1-.2.34-.46.64-.79.88-.33.25-.76.46-1.3.64-.53.18-1.36.36-2.48.56-.93.16-1.54.29-1.83.37-.29.08-.54.19-.77.31l4.17,2.42Z"/>
        <path d="M454.1,95.21l-6.03-3.5.11-.21c.15-.28.36-.53.6-.73.38-.31.86-.57,1.41-.77.54-.19,1.27-.36,2.16-.51,1.34-.22,2.3-.45,2.86-.7.53-.23.9-.53,1.1-.87.21-.36.25-.72.14-1.12-.11-.4-.37-.71-.8-.96-.45-.26-.87-.33-1.29-.22-.42.11-.76.4-1.04.88l-.14.23-1.42-1.03.14-.2c.57-.81,1.26-1.3,2.04-1.45.78-.15,1.61.02,2.47.52.87.5,1.42,1.16,1.66,1.94.23.79.14,1.56-.28,2.29-.21.37-.5.69-.86.96-.35.26-.81.49-1.37.67-.54.18-1.37.37-2.51.57-.94.16-1.53.28-1.8.36-.11.03-.21.07-.31.1l3.98,2.31-.82,1.42ZM448.72,91.53l5.2,3.01.34-.59-4.34-2.52.38-.21c.24-.13.51-.24.82-.33.29-.09.9-.21,1.85-.38,1.11-.2,1.93-.38,2.44-.56.51-.17.92-.37,1.23-.6.3-.23.55-.5.73-.81.36-.61.43-1.24.24-1.91-.19-.66-.68-1.22-1.43-1.66-.75-.44-1.47-.59-2.13-.46-.59.12-1.13.47-1.6,1.06l.6.44c.32-.46.72-.75,1.19-.88.54-.14,1.09-.05,1.65.27.53.31.87.73,1.02,1.24.15.52.09,1.02-.19,1.49-.25.44-.7.8-1.33,1.07-.6.26-1.58.5-2.98.73-.86.14-1.56.3-2.07.49-.5.18-.93.41-1.27.69-.14.11-.26.24-.36.38Z"/>
      </g>
    </g>
    <g>
      <path d="M457.54,91.29c.58-1.01,1.16-1.76,1.72-2.25.56-.49,1.14-.79,1.75-.88.6-.1,1.21.03,1.83.39.46.26.8.59,1.04.97.24.38.37.81.39,1.29.02.48-.05,1-.21,1.57-.16.57-.49,1.28-.97,2.12-.58,1-1.15,1.75-1.71,2.24-.56.49-1.14.79-1.74.89-.6.1-1.22-.03-1.84-.39-.82-.48-1.29-1.14-1.42-2-.15-1.03.24-2.35,1.16-3.95ZM458.62,91.92c-.81,1.4-1.19,2.42-1.13,3.07.06.65.33,1.12.81,1.39.48.28,1.02.28,1.61,0,.6-.28,1.3-1.11,2.1-2.5.81-1.4,1.19-2.43,1.13-3.08-.06-.65-.33-1.12-.82-1.4-.48-.28-.98-.3-1.5-.06-.66.31-1.39,1.16-2.2,2.56Z"/>
      <path d="M459.25,97.91c-.52,0-1.05-.15-1.57-.46-.89-.51-1.4-1.24-1.54-2.18-.16-1.08.24-2.46,1.19-4.1.59-1.02,1.19-1.8,1.77-2.31.6-.52,1.22-.84,1.87-.94.66-.1,1.32.04,1.99.42.49.28.87.64,1.13,1.06.26.41.4.89.43,1.41.02.5-.05,1.06-.22,1.65-.17.59-.5,1.32-1,2.18-.59,1.02-1.18,1.79-1.76,2.3-.59.52-1.22.84-1.86.95-.14.02-.28.03-.42.03ZM457.75,91.41c-.89,1.54-1.27,2.82-1.13,3.79.12.79.54,1.39,1.3,1.83.58.33,1.13.46,1.68.36.55-.09,1.1-.37,1.62-.83.54-.47,1.1-1.21,1.66-2.18.48-.82.8-1.52.95-2.07.15-.54.22-1.04.2-1.49-.02-.43-.14-.83-.36-1.17-.22-.35-.54-.65-.96-.89-.58-.33-1.12-.45-1.67-.36-.55.09-1.1.37-1.62.83-.54.47-1.1,1.21-1.67,2.19ZM459.07,96.83c-.31,0-.61-.08-.89-.24-.55-.32-.86-.85-.93-1.58-.06-.71.31-1.76,1.16-3.21.84-1.45,1.6-2.32,2.31-2.66.6-.27,1.18-.25,1.73.07.56.32.87.86.94,1.59.07.71-.31,1.76-1.16,3.22-.84,1.45-1.56,2.3-2.21,2.6-.33.15-.65.23-.95.23ZM458.83,92.04c-.78,1.35-1.15,2.33-1.09,2.93.05.57.28.97.69,1.21.41.24.87.24,1.39,0,.55-.25,1.22-1.06,2-2.4.78-1.35,1.15-2.34,1.1-2.93-.05-.57-.28-.97-.7-1.21-.41-.24-.83-.26-1.28-.05-.61.29-1.32,1.11-2.1,2.46Z"/>
    </g>
    <g>
      <g>
        <path d="M572.66,266.5l-.21-1.19,7.58-1.32c-.32-.24-.66-.57-1.02-.98-.35-.42-.63-.8-.83-1.15l1.15-.2c.43.61.91,1.13,1.44,1.55.53.42,1.02.7,1.48.83l.13.77-9.73,1.7Z"/>
        <path d="M572.46,266.78l-.29-1.67,7.3-1.27c-.21-.19-.42-.42-.64-.68-.36-.43-.65-.83-.86-1.18l-.17-.3,1.64-.29.09.13c.42.59.89,1.09,1.39,1.49.5.4.97.66,1.4.79l.14.04.2,1.15-10.2,1.78ZM572.73,265.5l.12.71,9.25-1.62-.07-.38c-.44-.16-.92-.43-1.42-.83-.51-.4-.98-.9-1.4-1.47l-.65.11c.17.25.38.52.62.81.34.4.67.72.98.95l.45.34-7.9,1.38Z"/>
      </g>
      <g>
        <path d="M581.61,268.11l1.14-.2,1.09,6.27-.93.16c-.76-.5-1.74-.96-2.94-1.38-1.19-.42-2.39-.69-3.6-.82-.85-.1-1.77-.09-2.74,0l-.21-1.22c.76-.12,1.71-.13,2.84-.03,1.13.1,2.24.33,3.34.69,1.1.36,2.04.78,2.83,1.27l-.83-4.75Z"/>
        <path d="M582.87,274.6l-.08-.05c-.74-.49-1.71-.94-2.88-1.35-1.17-.41-2.36-.68-3.55-.81-.84-.1-1.74-.09-2.69,0l-.23.02-.3-1.69.24-.04c.79-.12,1.76-.13,2.9-.03,1.15.1,2.29.33,3.39.7.91.3,1.72.64,2.43,1.03l-.78-4.47,1.62-.28,1.18,6.75-1.26.22ZM575.1,271.84c.45,0,.89.02,1.32.07,1.22.13,2.45.41,3.65.83,1.17.41,2.15.86,2.91,1.35l.59-.1-1.01-5.8-.67.12.88,5.04-.46-.28c-.77-.47-1.71-.89-2.78-1.24-1.07-.35-2.17-.58-3.28-.68-.98-.09-1.84-.09-2.54,0l.13.75c.43-.04.85-.06,1.25-.06Z"/>
      </g>
    </g>
    <g>
      <path d="M579.29,276.16c1.15-.2,2.09-.24,2.83-.13.74.11,1.34.37,1.8.77.46.4.75.95.87,1.65.09.52.07.99-.07,1.42-.14.43-.39.8-.74,1.13-.35.32-.8.61-1.34.85-.54.24-1.29.45-2.25.62-1.14.2-2.07.24-2.81.13-.74-.11-1.34-.37-1.8-.76-.46-.4-.75-.95-.88-1.66-.16-.93.04-1.73.62-2.38.69-.78,1.95-1.33,3.77-1.65ZM579.51,277.38c-1.59.28-2.62.65-3.08,1.11-.46.47-.64.97-.55,1.51.1.55.44.96,1.03,1.24.59.28,1.68.28,3.27,0,1.59-.28,2.62-.65,3.08-1.11.46-.46.64-.97.54-1.53-.1-.55-.4-.94-.92-1.19-.66-.31-1.79-.32-3.38-.04Z"/>
      <path d="M578.45,282.9c-.33,0-.63-.02-.9-.06-.78-.12-1.43-.4-1.92-.82-.5-.43-.83-1.04-.96-1.8-.18-1.01.05-1.88.68-2.58.73-.82,2.05-1.4,3.91-1.72,1.16-.2,2.14-.25,2.9-.13.78.12,1.43.4,1.92.83.5.43.82,1.04.95,1.79.1.56.07,1.07-.08,1.54-.15.47-.42.88-.8,1.23-.37.34-.84.64-1.4.9-.56.25-1.33.47-2.31.64-.74.13-1.41.19-1.99.19ZM581.24,276.21c-.55,0-1.19.06-1.9.19-1.75.31-2.98.83-3.63,1.57-.53.6-.71,1.31-.56,2.17.12.66.38,1.16.8,1.52.42.36.99.6,1.68.71.7.11,1.63.06,2.74-.13.94-.16,1.68-.37,2.19-.6.51-.23.94-.5,1.27-.81.32-.3.54-.64.67-1.03.13-.39.15-.83.07-1.31-.11-.64-.38-1.15-.79-1.51-.42-.37-.99-.61-1.68-.71-.26-.04-.54-.06-.85-.06ZM578.19,281.7c-.59,0-1.05-.08-1.38-.23-.67-.31-1.06-.79-1.17-1.42-.11-.62.1-1.2.61-1.73.5-.51,1.55-.89,3.21-1.18,1.66-.29,2.81-.27,3.52.06.59.28.95.74,1.06,1.37.11.63-.09,1.22-.61,1.74-.5.51-1.55.89-3.21,1.18-.8.14-1.48.21-2.03.21ZM581.46,277.42c-.53,0-1.17.07-1.91.19-1.53.27-2.53.62-2.95,1.04-.41.41-.56.84-.48,1.3.08.47.38.82.9,1.06.55.26,1.6.25,3.13-.01,1.54-.27,2.53-.62,2.95-1.05.4-.41.56-.84.48-1.32-.08-.47-.34-.8-.79-1.01-.31-.15-.76-.22-1.32-.22Z"/>
    </g>
    <g>
      <g>
        <path d="M538.14,178.05l-.6-1.05,6.67-3.84c-.39-.11-.82-.31-1.29-.58-.47-.27-.87-.53-1.17-.79l1.01-.58c.61.43,1.24.75,1.88.96.64.21,1.2.3,1.67.27l.39.68-8.56,4.92Z"/>
        <path d="M538.05,178.38l-.84-1.47,6.43-3.7c-.26-.11-.54-.25-.84-.42-.49-.28-.89-.55-1.21-.82l-.27-.22,1.45-.83.13.09c.59.41,1.2.72,1.82.93.61.2,1.15.28,1.58.26h.15s.59,1.01.59,1.01l-8.98,5.16ZM537.87,177.09l.36.63,8.14-4.68-.19-.34h-.04c-.46,0-.99-.1-1.57-.29-.62-.21-1.23-.51-1.82-.9l-.57.33c.24.18.53.36.86.55.46.26.88.45,1.24.56l.54.16-6.95,4Z"/>
      </g>
      <g>
        <path d="M541.9,179.41l.73,1.05c-.49.39-.78.81-.88,1.26-.1.45-.03.89.21,1.3.29.5.73.82,1.31.95.58.13,1.18.02,1.81-.35.6-.34.97-.78,1.12-1.32.15-.53.07-1.07-.24-1.62-.19-.34-.45-.6-.75-.78-.31-.18-.63-.28-.96-.3l-.44-1.06,4.85-1.69,2.44,4.24-1,.57-1.96-3.4-2.56.86c.65.31,1.14.74,1.46,1.3.43.74.53,1.52.31,2.33-.22.81-.74,1.45-1.55,1.91-.77.44-1.57.6-2.39.48-1.01-.15-1.78-.7-2.32-1.64-.45-.78-.59-1.53-.44-2.27.15-.74.57-1.35,1.24-1.83Z"/>
        <path d="M543.96,185.44c-.19,0-.38-.02-.58-.05-1.08-.16-1.92-.75-2.5-1.76-.47-.83-.63-1.65-.47-2.44.16-.8.62-1.47,1.34-1.98l.2-.14.99,1.43-.18.14c-.44.35-.71.73-.8,1.12-.09.39-.03.76.19,1.13.26.45.63.72,1.15.83.53.12,1.06.01,1.64-.32.55-.31.88-.7,1.01-1.17.13-.47.06-.94-.22-1.43-.17-.3-.4-.53-.67-.69-.28-.16-.56-.25-.85-.26h-.15s-.59-1.44-.59-1.44l5.28-1.84,2.66,4.62-1.42.82-1.98-3.44-1.85.62c.46.3.82.68,1.08,1.13.46.8.57,1.65.33,2.51-.24.87-.8,1.56-1.66,2.06-.64.37-1.3.55-1.97.55ZM541.84,179.75c-.51.42-.83.93-.95,1.54-.14.68,0,1.38.41,2.1.51.89,1.21,1.39,2.15,1.53.76.12,1.51-.03,2.23-.45.76-.44,1.23-1.01,1.44-1.77.21-.75.11-1.45-.29-2.14-.3-.52-.75-.92-1.35-1.21l-.55-.26,3.32-1.11,1.93,3.36.58-.33-2.22-3.86-4.42,1.54.28.68c.32.04.62.14.92.32.35.21.63.5.84.87.35.6.43,1.21.26,1.8-.17.59-.59,1.09-1.24,1.46-.68.39-1.34.51-1.99.37-.65-.15-1.14-.5-1.46-1.07-.27-.47-.35-.97-.24-1.48.1-.45.36-.87.79-1.25l-.46-.66Z"/>
      </g>
    </g>
    <g>
      <path d="M547.68,184.85c1.01-.58,1.88-.94,2.61-1.09.73-.15,1.38-.11,1.95.11.57.22,1.03.64,1.39,1.26.26.46.4.91.42,1.36.02.45-.09.89-.3,1.31-.22.42-.54.84-.96,1.26-.42.41-1.06.86-1.9,1.35-1,.58-1.87.94-2.6,1.09-.73.15-1.38.11-1.95-.1-.57-.22-1.04-.64-1.39-1.26-.47-.82-.55-1.64-.23-2.44.39-.97,1.38-1.92,2.98-2.84ZM548.3,185.93c-1.4.8-2.24,1.5-2.51,2.1-.28.59-.27,1.13,0,1.61.28.48.74.75,1.4.81.65.06,1.68-.31,3.07-1.11,1.4-.81,2.24-1.51,2.51-2.1.27-.59.27-1.13-.01-1.62-.28-.48-.7-.75-1.27-.8-.73-.06-1.79.31-3.19,1.11Z"/>
      <path d="M547.43,191.83c-.43,0-.82-.07-1.19-.21-.62-.24-1.13-.69-1.52-1.37-.51-.89-.59-1.78-.24-2.65.4-1.02,1.44-2.01,3.09-2.96,1.02-.59,1.93-.96,2.69-1.12.78-.16,1.48-.12,2.09.12.62.24,1.13.69,1.51,1.36.28.49.43.99.45,1.48.02.49-.1.97-.33,1.43-.23.45-.57.89-1.01,1.32-.44.43-1.09.89-1.95,1.39-1.02.59-1.92.96-2.67,1.11-.31.06-.61.09-.9.09ZM551.14,183.92c-.25,0-.52.03-.79.08-.71.14-1.56.5-2.54,1.06-1.55.89-2.52,1.8-2.88,2.72-.29.74-.22,1.47.21,2.23.33.58.75.96,1.27,1.16.52.2,1.14.23,1.82.09.7-.14,1.55-.5,2.53-1.06.82-.47,1.45-.92,1.86-1.31.4-.39.71-.8.92-1.2.2-.39.29-.79.28-1.19-.01-.41-.14-.83-.38-1.25-.33-.57-.75-.96-1.26-1.15-.31-.12-.66-.18-1.03-.18ZM547.33,190.7c-.06,0-.11,0-.17,0-.73-.07-1.27-.38-1.58-.93-.32-.55-.32-1.17-.01-1.83.3-.65,1.15-1.37,2.61-2.21,1.46-.84,2.52-1.21,3.33-1.15.65.06,1.15.37,1.46.92.32.56.33,1.18.02,1.84-.3.65-1.15,1.37-2.61,2.21-1.34.77-2.35,1.15-3.05,1.15ZM551.33,185.05c-.67,0-1.65.37-2.9,1.09-1.35.78-2.16,1.45-2.41,1.99-.24.52-.24.98,0,1.39.24.41.63.64,1.21.69.6.06,1.59-.31,2.93-1.08,1.35-.78,2.17-1.45,2.41-1.99.24-.52.24-.98,0-1.4-.24-.41-.59-.63-1.09-.68-.04,0-.09,0-.14,0Z"/>
    </g>
    <g>
      <g>
        <path d="M513.92,145.96l-.77-.93,5.9-4.94c-.4-.05-.86-.16-1.37-.35-.52-.18-.95-.38-1.29-.57l.9-.75c.68.31,1.35.52,2.02.62.67.1,1.24.09,1.7-.02l.5.6-7.58,6.33Z"/>
        <path d="M513.89,146.3l-1.09-1.3,5.69-4.76c-.28-.06-.58-.15-.9-.27-.53-.19-.97-.39-1.33-.59l-.3-.17,1.28-1.07.14.07c.65.3,1.31.5,1.95.6.64.09,1.18.09,1.61-.02l.15-.03.75.9-7.95,6.65ZM513.49,145.06l.46.55,7.2-6.02-.25-.3c-.46.09-1.01.08-1.64,0-.64-.09-1.3-.29-1.95-.57l-.5.42c.27.13.59.26.94.39.5.18.94.29,1.32.33l.56.06-6.15,5.14Z"/>
      </g>
      <g>
        <path d="M518.36,151.27l1.81-1.51-2.74-3.27.85-.71,7.77-.65.63.76-4.89,4.09.85,1.02-.85.71-.85-1.02-1.81,1.51-.77-.93ZM521.02,149.05l3.4-2.84-5.38.48,1.98,2.36Z"/>
        <path d="M519.11,152.54l-1.09-1.3,1.81-1.51-2.74-3.27,1.09-.91,7.97-.66.87,1.04-4.89,4.09.85,1.02-1.22,1.02-.85-1.02-1.81,1.51ZM518.7,151.3l.46.55,1.81-1.51.85,1.02.48-.4-.85-1.02,4.89-4.09-.4-.47-7.57.63-.61.5,2.74,3.27-1.81,1.51ZM520.99,149.39l-2.43-2.9,6.61-.59-4.18,3.5ZM519.53,146.88l1.52,1.82,2.62-2.19-4.15.37Z"/>
      </g>
    </g>
    <g>
      <path d="M524.5,151c.89-.75,1.69-1.25,2.38-1.52.7-.27,1.34-.35,1.94-.23.6.12,1.13.45,1.58,1,.34.4.56.83.65,1.27.09.44.07.89-.07,1.35-.14.45-.38.92-.73,1.41-.35.48-.89,1.03-1.64,1.66-.89.74-1.68,1.25-2.37,1.52-.69.27-1.34.35-1.94.24-.6-.11-1.13-.45-1.59-1-.61-.73-.83-1.52-.65-2.37.21-1.02,1.03-2.13,2.44-3.31ZM525.3,151.96c-1.24,1.04-1.94,1.87-2.11,2.5-.17.63-.07,1.16.28,1.59.36.43.86.61,1.51.56.66-.05,1.6-.6,2.83-1.63,1.24-1.04,1.95-1.87,2.11-2.51.17-.63.07-1.16-.29-1.6-.35-.43-.82-.61-1.39-.57-.73.07-1.71.62-2.95,1.65Z"/>
      <path d="M524.84,157.97c-.2,0-.4-.02-.59-.05-.65-.12-1.23-.49-1.73-1.08-.66-.78-.89-1.65-.7-2.57.22-1.07,1.07-2.23,2.53-3.45.91-.76,1.73-1.28,2.45-1.56.74-.29,1.44-.37,2.08-.25.65.13,1.23.49,1.72,1.08.36.43.6.9.7,1.37.1.48.07.97-.08,1.47-.15.48-.41.97-.77,1.48-.36.5-.92,1.07-1.68,1.7-.9.75-1.72,1.28-2.44,1.56-.52.2-1.02.31-1.49.31ZM524.65,151.19c-1.37,1.14-2.16,2.21-2.36,3.18-.16.78.03,1.49.6,2.16.43.51.9.81,1.45.92.55.11,1.16.03,1.81-.23.67-.26,1.44-.76,2.31-1.48.73-.61,1.27-1.15,1.6-1.62.33-.46.56-.91.7-1.34.13-.41.15-.83.07-1.23-.08-.4-.28-.79-.6-1.16-.43-.51-.9-.81-1.44-.91-.55-.1-1.16-.03-1.81.22-.67.26-1.45.76-2.32,1.48ZM524.76,156.85c-.62,0-1.12-.22-1.48-.65-.41-.49-.52-1.09-.33-1.8.18-.69.9-1.55,2.19-2.63,1.29-1.08,2.3-1.64,3.08-1.71.66-.06,1.19.17,1.6.65.41.49.53,1.1.34,1.81-.18.69-.9,1.55-2.19,2.63-1.29,1.08-2.26,1.63-2.97,1.69-.08,0-.16.01-.24.01ZM525.45,152.14c-1.19,1-1.88,1.8-2.03,2.38-.15.56-.07,1.01.23,1.37.31.36.73.52,1.31.47.6-.05,1.51-.58,2.7-1.57,1.2-1,1.88-1.8,2.03-2.38.15-.56.07-1.01-.24-1.38-.3-.36-.69-.52-1.19-.48-.67.06-1.62.6-2.81,1.6Z"/>
    </g>
    <g>
      <g>
        <path d="M561.74,224.24l-.41-1.14,7.24-2.62c-.36-.18-.75-.44-1.17-.79-.42-.35-.76-.68-1.02-.98l1.1-.4c.53.53,1.09.95,1.69,1.27.6.32,1.13.51,1.6.56l.26.73-9.28,3.36Z"/>
        <path d="M561.6,224.55l-.58-1.59,6.97-2.52c-.24-.15-.49-.34-.75-.56-.43-.36-.78-.7-1.05-1.01l-.22-.27,1.57-.57.11.11c.51.51,1.06.92,1.63,1.23.57.31,1.08.49,1.51.53l.15.02.4,1.1-9.74,3.53ZM561.64,223.25l.25.68,8.83-3.2-.13-.37c-.46-.08-.98-.27-1.54-.57-.57-.31-1.12-.71-1.63-1.21l-.62.22c.21.22.46.45.75.69.4.34.78.59,1.13.76l.51.25-7.54,2.73Z"/>
      </g>
      <g>
        <path d="M571.9,230.47l-.5-1.1c.41-.26.68-.52.82-.78.22-.42.24-.86.07-1.31-.13-.36-.35-.64-.65-.84-.39-.26-.87-.41-1.45-.43-.57-.02-1.33.13-2.25.45.52.12.95.35,1.29.67.35.32.6.7.75,1.13.27.76.23,1.5-.14,2.24-.36.73-.99,1.26-1.87,1.58-.58.21-1.17.28-1.75.21-.59-.07-1.09-.28-1.52-.62-.42-.34-.74-.79-.94-1.35-.34-.95-.27-1.84.21-2.69.48-.85,1.52-1.56,3.12-2.14,1.79-.65,3.21-.79,4.26-.42.92.32,1.55.97,1.9,1.95.26.73.28,1.4.04,2.01-.24.61-.7,1.09-1.39,1.45ZM566.23,227.28c-.39.14-.73.36-1.03.66-.3.3-.49.63-.56.99-.08.37-.06.71.06,1.04.17.48.52.82,1.03,1.03.51.2,1.1.19,1.76-.05.64-.23,1.08-.58,1.33-1.06.24-.47.27-.97.09-1.49-.19-.51-.53-.88-1.02-1.1-.5-.23-1.04-.23-1.64-.01Z"/>
        <path d="M566.66,232.55c-.15,0-.31,0-.46-.03-.63-.08-1.19-.3-1.64-.67-.46-.37-.8-.86-1.01-1.45-.37-1.01-.29-1.98.22-2.89.51-.9,1.6-1.65,3.24-2.25,1.83-.66,3.32-.8,4.42-.42.98.34,1.67,1.05,2.05,2.09.28.78.29,1.52.03,2.18-.26.66-.77,1.2-1.5,1.58l-.23.12-.69-1.52.18-.11c.37-.24.62-.47.73-.69.18-.36.2-.73.06-1.12-.11-.31-.29-.55-.55-.72-.35-.24-.8-.37-1.32-.39-.4-.02-.89.06-1.49.22.26.13.49.29.7.48.37.35.65.76.82,1.23.3.82.25,1.63-.15,2.43-.39.79-1.06,1.36-2,1.7-.46.17-.93.25-1.4.25ZM570.07,225.11c-.81,0-1.78.2-2.89.61-1.53.56-2.54,1.24-2.99,2.03-.45.79-.51,1.61-.19,2.49.18.51.47.93.86,1.24.38.31.85.5,1.39.57.55.06,1.1,0,1.64-.2.83-.3,1.4-.78,1.74-1.46.34-.68.38-1.35.12-2.05-.14-.39-.37-.74-.69-1.04-.31-.29-.71-.5-1.18-.61l-.8-.19.78-.27c.97-.34,1.74-.49,2.35-.47.62.03,1.15.19,1.57.47.34.23.59.55.74.96.19.51.16,1.02-.09,1.5-.14.26-.38.51-.73.76l.3.67c.51-.31.86-.71,1.05-1.2.22-.55.2-1.17-.04-1.84-.33-.91-.9-1.5-1.75-1.8-.35-.12-.75-.18-1.2-.18ZM566.48,231.37c-.3,0-.58-.05-.84-.16-.58-.23-.97-.62-1.17-1.17-.13-.37-.16-.77-.07-1.18.09-.41.3-.79.63-1.11.32-.32.7-.56,1.12-.71.66-.24,1.27-.23,1.82.02.56.25.94.67,1.15,1.24.21.58.18,1.15-.1,1.68-.27.53-.76.92-1.46,1.17-.38.14-.75.21-1.09.21ZM566.32,227.5c-.36.13-.67.33-.94.6-.26.26-.43.55-.5.87-.07.32-.05.62.05.91.15.42.44.7.89.88.45.18.99.16,1.59-.06.59-.21.97-.52,1.19-.94.21-.42.24-.84.07-1.29-.16-.45-.46-.77-.9-.97-.44-.2-.92-.2-1.46,0Z"/>
      </g>
    </g>
    <g>
      <path d="M569.96,232.59c1.09-.4,2.01-.6,2.76-.62.75-.02,1.38.13,1.9.45.52.31.91.8,1.15,1.48.18.5.24.97.17,1.41-.06.45-.24.86-.53,1.24-.29.38-.68.74-1.17,1.07-.49.33-1.19.67-2.11,1-1.08.39-2,.6-2.75.62-.75.02-1.38-.13-1.91-.44-.52-.31-.91-.81-1.16-1.48-.32-.89-.26-1.71.2-2.45.55-.89,1.69-1.65,3.43-2.28ZM570.38,233.76c-1.52.55-2.47,1.09-2.84,1.63-.37.54-.47,1.07-.28,1.59.19.52.6.87,1.23,1.04.63.17,1.71-.01,3.22-.56,1.52-.55,2.47-1.09,2.84-1.63.37-.54.46-1.07.27-1.6-.19-.52-.56-.86-1.11-1.01-.71-.19-1.82,0-3.33.54Z"/>
      <path d="M569.26,239.49c-.73,0-1.37-.16-1.9-.48-.57-.34-1-.88-1.26-1.61-.35-.96-.27-1.85.22-2.65.58-.93,1.77-1.73,3.55-2.38,1.11-.4,2.07-.61,2.84-.63.8-.01,1.48.15,2.03.48.57.34.99.88,1.25,1.6.19.53.25,1.05.18,1.53-.07.49-.26.94-.57,1.35-.3.4-.71.78-1.22,1.12-.5.34-1.23.69-2.16,1.03-1.11.4-2.06.61-2.83.63-.04,0-.09,0-.13,0ZM570.04,232.82c-1.68.61-2.79,1.34-3.3,2.18-.42.68-.48,1.41-.18,2.24.23.63.57,1.07,1.05,1.36.48.29,1.06.42,1.78.41.72-.02,1.62-.22,2.67-.6.89-.32,1.59-.65,2.06-.97.47-.32.84-.66,1.11-1.02.27-.35.42-.72.48-1.13.06-.41,0-.84-.16-1.3-.22-.61-.57-1.07-1.05-1.35-.48-.29-1.09-.43-1.77-.41-.72.02-1.62.22-2.69.6ZM569.03,238.33c-.23,0-.42-.02-.6-.07-.71-.19-1.18-.59-1.4-1.19-.22-.6-.11-1.2.31-1.81.41-.58,1.37-1.15,2.95-1.72,1.58-.57,2.72-.75,3.48-.55.63.17,1.06.56,1.28,1.16.22.61.12,1.22-.3,1.82-.4.58-1.37,1.15-2.96,1.72-1.18.43-2.09.64-2.77.64ZM573.1,233.39c-.65,0-1.53.2-2.64.6-1.46.53-2.38,1.05-2.72,1.54-.33.47-.41.92-.25,1.37.16.45.51.74,1.07.89.58.16,1.62-.03,3.07-.56,1.47-.53,2.38-1.05,2.73-1.54.33-.47.41-.92.24-1.38-.16-.45-.47-.73-.95-.86-.16-.04-.34-.06-.55-.06Z"/>
    </g>
    <g>
      <g>
        <path d="M72.9,227.23l1.08.4-2.22,6.06c-.27-.09-.52-.23-.73-.42-.36-.31-.67-.7-.95-1.19-.28-.49-.56-1.15-.85-1.98-.45-1.3-.85-2.21-1.2-2.73-.35-.53-.74-.87-1.16-1.02-.45-.16-.88-.14-1.3.07-.42.21-.73.57-.92,1.08-.2.54-.19,1.04.01,1.48.21.45.6.78,1.17.99l-.54,1.11c-.83-.39-1.38-.93-1.65-1.62-.26-.68-.23-1.46.09-2.33.32-.88.82-1.49,1.49-1.82.68-.33,1.37-.37,2.1-.11.37.13.7.34,1,.62.3.28.58.66.85,1.16.26.49.59,1.27.98,2.33.32.88.55,1.46.68,1.72.13.27.28.5.44.7l1.65-4.5Z"/>
        <path d="M71.91,233.99l-.22-.07c-.31-.1-.58-.26-.82-.47-.37-.32-.71-.74-1-1.25-.28-.5-.57-1.18-.87-2.02-.44-1.27-.84-2.17-1.18-2.68-.32-.48-.67-.79-1.05-.93-.39-.14-.75-.12-1.11.06-.37.18-.63.49-.8.95-.18.48-.18.91,0,1.29.18.39.52.67,1.04.86l.25.09-.76,1.57-.22-.1c-.89-.42-1.48-1.01-1.77-1.75-.28-.74-.25-1.58.08-2.5.34-.94.89-1.59,1.61-1.95.73-.36,1.5-.4,2.29-.12.4.14.76.37,1.08.67.32.29.62.7.89,1.22.27.5.6,1.3.99,2.36.32.87.54,1.44.67,1.7.05.1.1.19.15.28l1.57-4.29,1.54.56-2.38,6.51ZM66.28,226c.22,0,.44.04.67.12.48.18.91.55,1.28,1.12.36.54.77,1.48,1.23,2.79.28.82.56,1.47.83,1.94.26.46.56.84.9,1.12.13.12.28.21.43.29l2.05-5.6-.63-.23-1.71,4.68-.27-.34c-.17-.21-.32-.46-.46-.74-.14-.28-.36-.85-.69-1.75-.38-1.04-.71-1.81-.96-2.29-.25-.47-.52-.83-.8-1.09-.28-.26-.58-.45-.92-.57-.66-.24-1.29-.21-1.91.1-.61.31-1.08.87-1.37,1.69-.3.81-.33,1.54-.09,2.16.22.56.66,1.02,1.31,1.38l.32-.66c-.5-.24-.86-.57-1.06-1.01-.23-.5-.24-1.06-.02-1.66.21-.57.56-.98,1.04-1.21.27-.13.55-.2.83-.2Z"/>
      </g>
      <g>
        <path d="M69.87,224.79c-1.09-.4-1.92-.83-2.5-1.29-.58-.46-.97-.98-1.17-1.55-.2-.57-.18-1.19.07-1.86.18-.49.44-.89.77-1.19.33-.3.73-.5,1.19-.61.46-.11.99-.13,1.57-.07.59.06,1.33.25,2.24.59,1.08.39,1.9.82,2.48,1.29.58.46.97.98,1.17,1.55.2.57.18,1.19-.07,1.86-.32.89-.89,1.46-1.71,1.74-.98.33-2.34.17-4.06-.46ZM70.3,223.64c1.51.55,2.57.74,3.2.57.63-.17,1.04-.51,1.23-1.03.19-.52.1-1.04-.27-1.58-.37-.54-1.31-1.08-2.81-1.63-1.51-.55-2.58-.74-3.2-.57-.63.17-1.03.52-1.23,1.05-.19.52-.12,1.01.2,1.48.42.59,1.38,1.16,2.88,1.72Z"/>
        <path d="M72.8,225.66c-.85,0-1.86-.21-3.02-.64-1.11-.4-1.97-.85-2.56-1.33-.61-.49-1.03-1.05-1.24-1.66-.22-.62-.19-1.3.07-2.02.19-.53.48-.96.84-1.28.36-.33.8-.55,1.3-.66.48-.11,1.04-.13,1.65-.07.61.06,1.38.26,2.3.6,1.1.4,1.96.85,2.55,1.32.61.49,1.03,1.05,1.25,1.66.22.63.19,1.31-.07,2.03-.35.95-.97,1.59-1.86,1.88-.36.12-.76.18-1.2.18ZM69.21,218.44c-.33,0-.64.03-.91.1-.42.1-.78.28-1.09.55-.3.27-.54.64-.71,1.09-.23.62-.25,1.17-.07,1.69.18.53.55,1.01,1.09,1.44.56.45,1.37.87,2.43,1.26,1.66.61,2.97.76,3.9.45.75-.25,1.26-.77,1.56-1.59.22-.61.25-1.19.07-1.7-.18-.52-.55-1.01-1.09-1.44-.56-.44-1.37-.86-2.42-1.25-.89-.32-1.62-.52-2.18-.57-.2-.02-.4-.03-.58-.03ZM72.98,224.51c-.67,0-1.58-.21-2.76-.65-1.57-.57-2.55-1.16-3-1.8-.37-.54-.45-1.11-.23-1.7.22-.6.69-1,1.39-1.2.68-.18,1.78,0,3.35.58,1.56.57,2.52,1.13,2.92,1.72.42.6.52,1.21.3,1.8-.22.59-.69.99-1.39,1.18-.17.05-.36.07-.58.07ZM70.38,223.41c1.45.53,2.48.72,3.05.56.55-.15.9-.44,1.06-.88.16-.44.08-.89-.25-1.36-.34-.49-1.25-1.01-2.69-1.54-1.46-.53-2.48-.72-3.06-.57-.55.15-.9.44-1.06.9-.16.44-.1.85.17,1.26.39.55,1.32,1.1,2.77,1.63Z"/>
      </g>
      <g>
        <path d="M61.99,273.39l-.21,1.18-7.52-1.34c.22.33.42.75.61,1.26.19.51.32.96.39,1.35l-1.14-.2c-.19-.71-.47-1.36-.82-1.93-.35-.57-.72-1-1.1-1.28l.14-.76,9.66,1.72Z"/>
        <path d="M55.56,276.15l-1.63-.29-.04-.15c-.19-.69-.45-1.32-.79-1.87-.34-.54-.69-.95-1.04-1.21l-.12-.09.2-1.15,10.13,1.81-.3,1.66-7.25-1.29c.13.25.25.54.37.85.19.52.33.99.4,1.39l.06.34ZM54.31,275.43l.64.11c-.07-.29-.17-.62-.3-.97-.18-.49-.38-.9-.59-1.21l-.31-.47,7.84,1.4.13-.7-9.18-1.63-.07.38c.36.3.7.71,1.04,1.25.34.55.61,1.17.81,1.85Z"/>
      </g>
      <g>
        <path d="M57.76,269.56c-1.14-.2-2.03-.48-2.68-.84-.65-.36-1.12-.8-1.42-1.33-.29-.53-.38-1.14-.25-1.84.09-.52.28-.95.55-1.3.28-.35.63-.62,1.07-.8.44-.18.95-.3,1.54-.34.59-.04,1.36.02,2.31.19,1.13.2,2.02.48,2.67.83.65.36,1.13.8,1.42,1.33.3.53.38,1.15.26,1.85-.17.93-.63,1.6-1.39,2.01-.91.49-2.27.58-4.08.25ZM57.98,268.35c1.58.28,2.66.28,3.25,0,.59-.28.93-.69,1.03-1.23.1-.54-.08-1.04-.54-1.51-.46-.46-1.47-.83-3.05-1.11-1.58-.28-2.67-.28-3.25,0-.59.28-.93.69-1.03,1.24-.1.54.06,1.02.46,1.42.51.51,1.56.91,3.14,1.19Z"/>
        <path d="M59.69,269.99c-.59,0-1.25-.06-1.97-.19-1.16-.21-2.09-.5-2.76-.87-.69-.38-1.2-.86-1.51-1.42-.32-.58-.41-1.25-.28-2,.1-.55.3-1.03.6-1.41.3-.38.69-.68,1.17-.88.46-.19,1-.31,1.61-.36.6-.05,1.4.02,2.37.19,1.15.21,2.07.49,2.74.86.69.38,1.2.85,1.52,1.42.32.58.42,1.25.28,2.01-.18,1-.69,1.73-1.51,2.18-.59.31-1.35.47-2.27.47ZM56.95,263.33c-.13,0-.25,0-.37.01-.56.04-1.05.15-1.46.32-.4.17-.72.41-.97.73-.25.32-.42.71-.5,1.2-.11.64-.04,1.21.23,1.68.27.49.71.9,1.32,1.23.62.34,1.5.62,2.61.81,1.74.31,3.06.23,3.92-.23.7-.38,1.11-.98,1.26-1.84.11-.64.04-1.21-.23-1.69-.27-.49-.72-.9-1.33-1.23-.62-.34-1.5-.61-2.6-.81-.74-.13-1.37-.2-1.88-.2ZM59.99,268.8c-.56,0-1.24-.07-2.05-.22-1.64-.29-2.71-.7-3.27-1.25-.46-.46-.64-1.01-.53-1.63.11-.63.5-1.11,1.16-1.42.64-.3,1.75-.31,3.4-.01,1.64.29,2.68.68,3.18,1.18.52.52.72,1.1.61,1.72-.11.62-.5,1.1-1.16,1.41-.32.15-.77.23-1.34.23ZM56.65,264.53c-.49,0-.87.06-1.13.18-.52.24-.81.59-.89,1.07-.08.46.05.86.39,1.21.47.47,1.49.85,3.01,1.12,1.52.27,2.56.28,3.1.03.52-.24.81-.59.89-1.05.08-.46-.07-.89-.48-1.29-.42-.42-1.4-.78-2.92-1.05-.79-.14-1.45-.21-1.98-.21Z"/>
      </g>
      <g>
        <path d="M114.65,153.41l-1.79-1.51-2.73,3.24-.84-.71-1.97-7.49.63-.75,4.84,4.08.85-1.01.84.71-.85,1.01,1.79,1.51-.77.92ZM112.02,151.19l-3.37-2.84,1.4,5.18,1.97-2.34Z"/>
        <path d="M110.16,155.48l-1.09-.91-2.02-7.68.87-1.03,4.84,4.08.85-1.01,1.21,1.02-.85,1.01,1.79,1.51-1.08,1.29-1.79-1.51-2.73,3.24ZM109.5,154.3l.6.5,2.73-3.24,1.79,1.51.46-.55-1.79-1.51.85-1.01-.47-.4-.85,1.01-4.84-4.08-.4.47,1.92,7.29ZM109.93,154.04l-1.72-6.37,4.15,3.49-2.42,2.88ZM109.08,149.04l1.08,3.98,1.52-1.8-2.59-2.18Z"/>
      </g>
      <g>
        <path d="M113.34,147.46c-.88-.74-1.52-1.43-1.9-2.07-.39-.64-.57-1.26-.56-1.86.01-.6.24-1.18.7-1.72.34-.4.71-.68,1.13-.85.42-.17.86-.22,1.33-.16.47.06.97.22,1.5.47.53.26,1.17.69,1.91,1.32.88.74,1.51,1.42,1.89,2.06.39.63.58,1.25.57,1.86,0,.61-.24,1.18-.7,1.73-.61.72-1.34,1.07-2.2,1.04-1.04-.03-2.26-.64-3.66-1.82ZM114.13,146.52c1.23,1.03,2.16,1.58,2.81,1.63.65.06,1.15-.13,1.5-.55.35-.42.45-.95.28-1.58-.17-.63-.86-1.46-2.08-2.49-1.23-1.04-2.17-1.58-2.81-1.63-.65-.05-1.15.13-1.51.56-.35.42-.46.91-.31,1.46.19.7.9,1.57,2.12,2.6Z"/>
        <path d="M117.08,149.52s-.06,0-.09,0c-1.09-.03-2.37-.66-3.81-1.88-.9-.76-1.56-1.47-1.95-2.13-.41-.67-.61-1.34-.6-1.99.01-.66.27-1.29.76-1.88.36-.43.78-.74,1.23-.92.45-.18.94-.24,1.45-.18.49.06,1.02.23,1.58.49.55.26,1.2.72,1.96,1.35.89.75,1.55,1.46,1.95,2.12.41.67.61,1.34.6,1.99,0,.66-.26,1.29-.76,1.88-.63.75-1.41,1.13-2.3,1.13ZM113.67,141.02c-.31,0-.6.06-.88.17-.38.15-.73.41-1.04.78-.42.5-.64,1.03-.64,1.57,0,.56.17,1.14.53,1.73.37.61.99,1.28,1.85,2.01,1.35,1.14,2.53,1.73,3.51,1.76.8.03,1.45-.29,2.01-.96.42-.5.64-1.03.65-1.58,0-.56-.17-1.14-.53-1.73-.37-.61-.99-1.28-1.84-2-.72-.61-1.35-1.04-1.86-1.29-.51-.24-.99-.4-1.43-.45-.11-.01-.22-.02-.33-.02ZM117.16,148.4c-.08,0-.16,0-.24-.01-.7-.06-1.67-.61-2.95-1.69-1.28-1.08-2-1.97-2.2-2.72-.17-.63-.05-1.19.36-1.68.41-.49.99-.71,1.72-.65.7.06,1.67.61,2.95,1.69,1.27,1.07,1.98,1.93,2.16,2.62.19.71.07,1.31-.33,1.79-.36.43-.85.64-1.47.64ZM113.62,142.13c-.47,0-.84.16-1.11.49-.3.36-.39.77-.27,1.24.17.65.86,1.48,2.05,2.48,1.18.99,2.08,1.53,2.68,1.58.57.05.99-.1,1.3-.46.3-.36.38-.81.24-1.36-.15-.58-.83-1.38-2.01-2.37-1.19-1-2.09-1.53-2.68-1.58-.07,0-.13,0-.19,0Z"/>
      </g>
      <g>
        <path d="M84.83,190.81l.46-1.12c.66.22,1.2.26,1.62.13.43-.14.76-.41,1-.82.28-.49.35-1,.21-1.53-.14-.53-.46-.94-.96-1.23-.48-.28-.96-.35-1.45-.22-.49.13-.87.44-1.15.92-.11.2-.22.46-.31.8l-.84-.64c.05-.07.08-.12.11-.16.26-.44.37-.91.35-1.39-.03-.49-.28-.87-.76-1.15-.38-.22-.77-.27-1.17-.16-.4.11-.72.37-.95.78-.23.4-.3.81-.2,1.23.1.42.38.81.84,1.18l-.79.93c-.62-.53-.99-1.13-1.12-1.8-.12-.67.01-1.34.4-2.01.27-.46.61-.83,1.04-1.1s.87-.41,1.33-.42c.46,0,.88.1,1.27.32.37.21.64.5.83.87.19.37.26.8.21,1.29.4-.43.87-.68,1.39-.75.52-.07,1.06.06,1.6.38.74.43,1.21,1.06,1.41,1.89.2.83.06,1.66-.41,2.49-.43.74-1.01,1.23-1.73,1.46-.73.23-1.46.18-2.21-.16Z"/>
        <path d="M86.14,191.35c-.47,0-.94-.11-1.41-.32l-.21-.1.64-1.54.21.07c.61.21,1.1.25,1.47.13.37-.12.65-.35.86-.71.25-.43.31-.88.19-1.35-.13-.47-.41-.83-.85-1.09-.42-.24-.84-.31-1.27-.19-.43.12-.76.38-1,.81-.1.18-.2.43-.29.74l-.09.35-1.32-1,.14-.19c.04-.06.07-.1.09-.14.23-.4.34-.82.31-1.26-.02-.4-.23-.71-.64-.95-.32-.19-.64-.23-.98-.14-.34.1-.61.31-.81.67-.2.35-.26.69-.18,1.05.08.36.34.71.76,1.05l.19.16-1.1,1.31-.19-.16c-.66-.57-1.07-1.22-1.2-1.94-.13-.73.01-1.46.43-2.17.29-.49.66-.89,1.11-1.18.46-.3.95-.45,1.45-.46.48-.01.97.11,1.39.35.4.23.71.56.92.97.13.26.21.54.24.85.34-.25.71-.4,1.12-.45.58-.07,1.17.06,1.76.41.79.46,1.3,1.15,1.52,2.05.22.89.07,1.79-.44,2.66-.46.79-1.09,1.32-1.87,1.57-.32.1-.64.15-.97.15ZM85.15,190.68c.62.23,1.21.25,1.82.06.67-.22,1.2-.66,1.6-1.35.44-.76.57-1.54.39-2.31-.19-.78-.61-1.35-1.29-1.74-.5-.29-.99-.41-1.45-.34-.47.06-.88.28-1.25.67l-.48.52.07-.7c.04-.44-.02-.82-.19-1.15-.17-.33-.41-.58-.73-.77-.34-.2-.74-.3-1.14-.29-.41,0-.82.13-1.2.38-.39.25-.71.59-.96,1.02-.36.62-.48,1.23-.37,1.85.1.54.38,1.05.85,1.5l.47-.56c-.39-.36-.64-.75-.73-1.15-.11-.47-.03-.95.23-1.41.27-.46.64-.76,1.1-.89.46-.13.92-.07,1.35.19.55.32.85.77.88,1.34.03.53-.1,1.04-.37,1.51l.39.29c.07-.2.15-.37.23-.52.31-.53.75-.88,1.3-1.03.55-.15,1.1-.07,1.63.24.56.32.92.79,1.08,1.38.16.59.08,1.17-.23,1.71-.27.46-.65.78-1.13.93-.42.14-.95.12-1.56-.06l-.29.69Z"/>
      </g>
      <g>
        <path d="M86.67,183.16c-1-.58-1.74-1.15-2.23-1.71-.49-.56-.78-1.14-.88-1.73-.1-.6.03-1.2.39-1.82.26-.45.58-.8.97-1.03.38-.24.81-.37,1.28-.39.47-.02.99.04,1.56.2.57.16,1.27.48,2.11.97.99.57,1.73,1.14,2.22,1.7.49.56.79,1.13.88,1.73.1.6-.03,1.21-.39,1.82-.47.82-1.13,1.29-1.99,1.41-1.03.15-2.33-.24-3.92-1.16ZM87.29,182.09c1.39.8,2.4,1.18,3.05,1.12.65-.06,1.11-.33,1.39-.8.28-.48.28-1.01,0-1.6-.27-.59-1.1-1.29-2.48-2.09-1.39-.81-2.41-1.18-3.06-1.12-.65.06-1.11.33-1.39.82-.28.48-.3.97-.06,1.49.31.66,1.16,1.39,2.54,2.19Z"/>
        <path d="M90.15,184.58c-1,0-2.21-.41-3.6-1.22-1.02-.59-1.79-1.18-2.29-1.76-.52-.59-.83-1.22-.94-1.86-.1-.65.04-1.32.42-1.98.28-.49.63-.86,1.05-1.12.41-.26.88-.4,1.39-.43.49-.02,1.05.05,1.64.21.59.17,1.3.49,2.16.99,1.01.59,1.78,1.17,2.28,1.75.52.59.84,1.21.94,1.85.11.65-.04,1.32-.42,1.98-.51.88-1.23,1.39-2.16,1.53-.15.02-.31.03-.48.03ZM86.38,176.71c-.06,0-.12,0-.18,0-.43.02-.82.14-1.16.35-.35.21-.64.53-.88.95-.33.57-.45,1.11-.36,1.66.09.55.36,1.09.82,1.61.47.54,1.2,1.09,2.17,1.66,1.53.89,2.8,1.27,3.76,1.13.78-.12,1.38-.54,1.81-1.29.33-.57.45-1.13.36-1.66-.09-.55-.37-1.09-.83-1.61-.47-.53-1.2-1.09-2.16-1.65-.82-.47-1.51-.79-2.05-.94-.47-.13-.91-.2-1.31-.2ZM90.2,183.45c-.7,0-1.7-.38-3.03-1.16-1.45-.84-2.31-1.59-2.64-2.3-.27-.59-.25-1.17.07-1.72.32-.55.85-.87,1.58-.94.72-.06,1.75.31,3.2,1.15,1.44.83,2.29,1.55,2.58,2.2.31.66.3,1.28-.02,1.82-.32.55-.85.86-1.57.92-.05,0-.1,0-.16,0ZM87.41,181.88c1.34.77,2.32,1.15,2.91,1.09.57-.05.96-.28,1.2-.68.24-.41.24-.86,0-1.38-.25-.54-1.05-1.21-2.38-1.98-1.34-.78-2.33-1.15-2.91-1.09-.57.05-.96.28-1.2.7-.24.41-.25.82-.05,1.27.28.6,1.1,1.31,2.44,2.08Z"/>
      </g>
      <g>
        <path d="M265.47,59.38c-.52-.09-.93-.29-1.22-.58-.3-.29-.48-.67-.56-1.13-.12-.7.03-1.33.45-1.9.42-.57,1.05-.92,1.88-1.07.84-.15,1.56-.02,2.16.38.6.4.96.95,1.08,1.65.08.45.03.85-.15,1.22-.18.37-.49.69-.93.95.63.09,1.13.32,1.51.7.38.38.63.86.73,1.46.14.82-.03,1.56-.51,2.22-.48.66-1.2,1.08-2.15,1.24-.95.17-1.76.02-2.44-.44-.68-.46-1.09-1.11-1.24-1.95-.11-.63-.04-1.18.2-1.65.24-.48.64-.84,1.2-1.1ZM264.88,57.42c.08.46.29.8.63,1.04.34.24.75.31,1.22.23.45-.08.8-.29,1.04-.63.24-.34.33-.71.25-1.13-.08-.43-.29-.77-.64-1.02-.35-.24-.75-.32-1.2-.25-.45.08-.8.29-1.05.63-.25.34-.34.71-.27,1.11ZM265.28,61.93c.06.34.2.65.41.94.22.29.5.49.84.61.35.12.7.14,1.06.08.56-.1,1-.36,1.3-.79.3-.43.41-.92.31-1.48-.1-.57-.37-1.01-.81-1.31-.44-.31-.95-.41-1.52-.31-.56.1-.98.36-1.29.79-.3.43-.4.92-.31,1.47Z"/>
        <path d="M267.03,64.84c-.7,0-1.32-.18-1.86-.55-.73-.5-1.18-1.21-1.34-2.11-.12-.67-.04-1.28.23-1.81.18-.36.45-.66.8-.91-.3-.12-.56-.28-.77-.49-.33-.32-.54-.75-.63-1.26-.13-.76.03-1.47.49-2.08.46-.61,1.14-1,2.04-1.16.9-.16,1.68-.02,2.33.42.65.43,1.05,1.04,1.18,1.81.09.49.03.95-.17,1.37-.13.27-.32.51-.57.73.43.13.8.35,1.1.64.42.41.69.94.8,1.59.16.89-.03,1.7-.55,2.41-.52.71-1.3,1.16-2.3,1.34-.26.05-.52.07-.76.07ZM266.67,54.89c-.2,0-.4.02-.62.06-.78.14-1.35.45-1.73.97-.38.51-.51,1.07-.4,1.71.07.42.24.75.49,1,.26.26.63.43,1.1.51l.76.14-.7.32c-.51.24-.87.56-1.09.99-.22.43-.28.94-.18,1.5.14.78.51,1.37,1.14,1.79.63.43,1.38.56,2.27.4.89-.16,1.55-.53,2-1.15.45-.61.6-1.28.47-2.04-.1-.55-.31-.98-.66-1.32-.35-.34-.8-.55-1.38-.63l-.68-.1.59-.35c.4-.24.68-.52.84-.85.15-.32.2-.69.13-1.08-.11-.64-.43-1.13-.97-1.49-.4-.27-.85-.4-1.36-.4ZM267.22,63.83c-.26,0-.51-.04-.76-.13-.39-.13-.71-.37-.96-.69-.24-.32-.39-.67-.45-1.04-.11-.61,0-1.17.35-1.65.34-.48.82-.78,1.44-.89.63-.11,1.2,0,1.7.35.5.34.8.84.91,1.47.11.62,0,1.18-.35,1.66-.34.48-.83.78-1.46.89-.14.02-.28.04-.42.04ZM267.28,59.87c-.12,0-.24.01-.37.03-.49.09-.86.31-1.13.69-.27.38-.35.8-.27,1.29.05.3.17.57.37.83.19.25.42.42.73.52.31.1.61.13.94.07.5-.09.88-.31,1.15-.69.27-.38.36-.8.27-1.3-.09-.51-.32-.89-.71-1.15-.3-.2-.62-.3-.97-.3ZM266.39,58.97c-.38,0-.71-.1-1.01-.31-.4-.27-.64-.68-.73-1.2-.08-.47.02-.9.31-1.3.28-.39.69-.63,1.2-.73.51-.09.97,0,1.38.29.4.28.65.68.74,1.17.08.48-.01.92-.29,1.31-.28.39-.68.63-1.2.72-.13.02-.26.03-.39.03ZM265.12,57.38c.07.39.24.68.53.88.29.2.63.27,1.04.19.39-.07.68-.24.89-.53.2-.28.27-.59.21-.95-.06-.37-.24-.65-.54-.86-.3-.21-.63-.27-1.02-.21-.39.07-.68.24-.89.53-.21.29-.28.59-.22.93Z"/>
      </g>
      <g>
        <path d="M271.17,58.86c-.2-1.14-.24-2.07-.13-2.81.11-.73.37-1.33.76-1.79.4-.46.94-.75,1.64-.87.52-.09.99-.07,1.41.07.43.14.8.38,1.12.73.32.35.61.79.85,1.33.24.54.45,1.28.61,2.24.2,1.13.24,2.06.13,2.79-.11.73-.36,1.33-.76,1.79-.4.46-.95.75-1.65.87-.93.16-1.71-.04-2.36-.62-.78-.69-1.32-1.94-1.63-3.74ZM272.38,58.65c.28,1.58.64,2.6,1.1,3.06.46.46.96.64,1.51.55.54-.09.95-.44,1.23-1.03.28-.59.28-1.67,0-3.25-.28-1.58-.65-2.61-1.11-3.06-.46-.45-.97-.63-1.52-.54-.54.1-.94.4-1.18.92-.3.66-.32,1.78-.04,3.36Z"/>
        <path d="M274.57,63.51c-.73,0-1.38-.24-1.93-.73-.82-.73-1.38-2-1.71-3.88-.2-1.16-.25-2.13-.13-2.89.12-.78.39-1.42.82-1.91.43-.5,1.03-.82,1.79-.95.56-.1,1.07-.07,1.53.08.46.15.87.42,1.22.8.34.36.64.83.89,1.39.25.55.46,1.33.63,2.29.2,1.15.24,2.12.13,2.87-.12.78-.39,1.42-.82,1.91-.43.5-1.04.82-1.79.95-.22.04-.43.06-.63.06ZM271.41,58.82c.3,1.74.83,2.96,1.56,3.61.59.52,1.3.71,2.16.56.64-.11,1.15-.38,1.51-.79.36-.42.6-.98.7-1.67.11-.7.06-1.62-.13-2.72-.16-.93-.36-1.66-.59-2.18-.23-.51-.5-.93-.81-1.26-.29-.32-.64-.54-1.02-.67-.38-.13-.82-.15-1.3-.07-.65.11-1.14.37-1.5.79-.36.42-.6.98-.71,1.67-.11.7-.07,1.62.13,2.73ZM274.72,62.52c-.5,0-.97-.21-1.4-.64-.5-.5-.88-1.54-1.17-3.18-.29-1.65-.27-2.79.06-3.5.28-.59.73-.94,1.36-1.05.62-.11,1.21.09,1.73.61.5.5.89,1.54,1.17,3.19.29,1.64.28,2.75-.02,3.39-.31.66-.79,1.05-1.41,1.16-.11.02-.21.03-.32.03ZM272.62,58.61c.27,1.52.61,2.51,1.04,2.92.41.4.83.56,1.29.48.46-.08.81-.37,1.05-.89.25-.54.25-1.58-.02-3.1-.27-1.53-.62-2.51-1.04-2.93-.4-.4-.84-.56-1.31-.47-.46.08-.79.34-1,.78-.28.61-.29,1.69-.02,3.21Z"/>
      </g>
      <g>
        <path d="M178.85,89.17l-.99.68c-.33-.35-.63-.58-.9-.66-.45-.13-.88-.08-1.3.15-.33.19-.57.45-.71.78-.19.43-.25.92-.17,1.49.07.57.35,1.28.83,2.13.03-.52.17-.98.43-1.38.26-.39.58-.7.98-.93.69-.4,1.43-.48,2.21-.25.78.23,1.4.75,1.87,1.56.31.53.47,1.09.51,1.68.03.59-.08,1.12-.34,1.59-.26.47-.65.86-1.15,1.15-.87.5-1.76.59-2.67.26-.91-.32-1.79-1.22-2.63-2.68-.94-1.64-1.32-3-1.15-4.09.15-.95.68-1.68,1.57-2.2.67-.38,1.32-.51,1.96-.38.64.13,1.19.5,1.66,1.11ZM176.71,95.26c.21.36.48.66.82.9.34.24.7.37,1.07.38.37.01.71-.07,1.01-.24.44-.25.71-.65.83-1.18.11-.54,0-1.11-.36-1.72-.34-.59-.76-.96-1.26-1.11-.51-.16-.99-.1-1.47.17-.47.27-.77.67-.9,1.19-.13.52-.04,1.06.27,1.61Z"/>
        <path d="M178.51,97.84c-.38,0-.76-.07-1.15-.2-.97-.34-1.89-1.28-2.76-2.79-.97-1.68-1.36-3.11-1.17-4.25.17-1.02.73-1.82,1.69-2.37.72-.41,1.44-.55,2.13-.41.7.14,1.3.54,1.8,1.2l.15.2-1.37.94-.14-.15c-.3-.32-.57-.52-.8-.6-.38-.11-.75-.07-1.1.13-.29.17-.49.38-.61.66-.17.38-.22.84-.16,1.36.05.39.21.86.47,1.41.08-.27.19-.53.35-.76.28-.42.63-.76,1.06-1.01.75-.43,1.55-.52,2.4-.27.84.25,1.51.81,2.01,1.67.32.56.5,1.16.54,1.79.03.63-.09,1.21-.37,1.72-.28.51-.7.93-1.24,1.24-.56.32-1.14.49-1.72.49ZM176.72,88.26c-.44,0-.9.13-1.36.4-.84.48-1.31,1.14-1.45,2.02-.17,1.03.21,2.35,1.12,3.93.81,1.41,1.65,2.27,2.5,2.57.85.3,1.66.22,2.47-.24.47-.27.82-.62,1.06-1.06.24-.44.34-.91.31-1.46-.03-.55-.19-1.07-.48-1.57-.43-.75-1.01-1.23-1.73-1.44-.73-.22-1.38-.14-2.02.23-.37.21-.66.49-.9.85-.23.36-.36.78-.39,1.26l-.05.82-.4-.72c-.5-.89-.78-1.61-.86-2.21-.08-.61-.02-1.15.19-1.62.16-.37.44-.67.81-.89.47-.27.97-.33,1.48-.18.28.09.56.28.87.58l.6-.41c-.39-.45-.84-.72-1.35-.82-.14-.03-.29-.04-.43-.04ZM178.67,96.79s-.06,0-.09,0c-.42-.02-.82-.16-1.2-.43-.37-.26-.67-.59-.89-.97-.35-.6-.44-1.2-.3-1.79.15-.59.49-1.04,1.02-1.34.53-.31,1.09-.37,1.66-.19.56.18,1.04.59,1.4,1.22.38.66.51,1.29.38,1.89-.13.6-.45,1.06-.94,1.34-.31.18-.67.27-1.05.27ZM176.92,95.14c.19.33.44.6.75.82.3.21.62.32.94.34.31.02.62-.06.88-.21.38-.22.61-.55.71-1.02.1-.47-.01-.99-.33-1.55-.31-.54-.68-.86-1.13-1-.44-.14-.86-.09-1.28.15-.42.24-.67.58-.79,1.04-.12.47-.04.93.25,1.43Z"/>
      </g>
      <g>
        <path d="M181.27,90.72c-.58-1-.94-1.87-1.08-2.6-.14-.73-.11-1.37.11-1.94.22-.57.63-1.02,1.25-1.38.45-.26.91-.4,1.35-.41.45-.02.88.09,1.3.3.42.22.84.54,1.25.96.41.42.86,1.05,1.34,1.89.57.99.93,1.85,1.08,2.58.15.73.11,1.38-.1,1.94-.21.57-.63,1.03-1.25,1.38-.82.47-1.63.55-2.43.23-.96-.38-1.9-1.37-2.82-2.96ZM182.34,90.1c.8,1.39,1.49,2.22,2.08,2.49.59.27,1.12.27,1.6,0,.48-.28.75-.74.81-1.39.06-.65-.31-1.67-1.11-3.05-.8-1.39-1.5-2.23-2.09-2.5-.59-.27-1.13-.27-1.61.01-.48.27-.74.69-.8,1.26-.06.72.31,1.78,1.11,3.17Z"/>
        <path d="M185.06,94.11c-.36,0-.71-.07-1.06-.21-1.03-.41-1.99-1.41-2.94-3.06-.59-1.02-.96-1.92-1.11-2.67-.15-.77-.11-1.47.12-2.07.23-.61.69-1.12,1.35-1.5.49-.28.98-.43,1.47-.44.5-.01.97.09,1.42.33.44.23.89.57,1.31,1,.43.44.89,1.09,1.38,1.94.58,1.01.95,1.91,1.1,2.65.16.77.12,1.47-.11,2.08-.23.62-.69,1.12-1.36,1.51-.52.3-1.05.45-1.58.45ZM182.99,84.63s-.05,0-.08,0c-.41.01-.82.14-1.24.38-.56.32-.95.75-1.14,1.26-.2.52-.23,1.13-.1,1.81.14.7.49,1.55,1.05,2.52.88,1.53,1.79,2.49,2.7,2.86.73.29,1.46.22,2.22-.21.57-.33.95-.75,1.15-1.26.2-.52.23-1.13.09-1.81-.14-.7-.49-1.54-1.05-2.51-.47-.82-.91-1.44-1.31-1.84-.39-.4-.79-.71-1.19-.91-.36-.18-.73-.28-1.11-.28ZM185.27,93.04c-.3,0-.62-.08-.94-.23-.64-.3-1.36-1.15-2.19-2.59-.83-1.45-1.2-2.53-1.14-3.31.06-.65.37-1.14.92-1.45.56-.32,1.17-.33,1.83-.02.64.3,1.36,1.15,2.19,2.6.83,1.44,1.2,2.49,1.14,3.2-.07.73-.38,1.26-.93,1.57-.28.16-.57.24-.88.24ZM182.81,85.7c-.23,0-.45.06-.66.18-.41.23-.63.59-.68,1.08-.06.67.31,1.69,1.08,3.03.77,1.34,1.43,2.14,1.97,2.4.52.24.97.24,1.38,0,.41-.24.63-.63.68-1.2.05-.59-.31-1.57-1.07-2.91-.77-1.34-1.44-2.15-1.98-2.4-.26-.12-.5-.18-.73-.18Z"/>
      </g>
      <g>
        <path d="M140.49,122.7l.9-.89c.46.41.93.63,1.39.64.46.02.87-.13,1.24-.43.44-.37.68-.85.71-1.44.03-.59-.19-1.16-.65-1.71-.44-.53-.93-.82-1.48-.87-.55-.06-1.06.11-1.54.51-.3.25-.51.54-.63.87-.13.33-.17.66-.12.99l-.96.61-2.49-4.46,3.73-3.12.73.88-2.99,2.5,1.28,2.35c.19-.69.53-1.24,1.02-1.65.65-.55,1.4-.78,2.22-.71.83.08,1.54.47,2.14,1.18.57.68.86,1.43.88,2.26.03,1.01-.38,1.86-1.21,2.55-.68.57-1.4.84-2.15.82-.75-.02-1.42-.32-2.01-.9Z"/>
        <path d="M142.58,123.85s-.06,0-.09,0c-.81-.02-1.54-.35-2.17-.97l-.17-.17,1.23-1.22.17.15c.42.37.83.57,1.24.58.37,0,.75-.11,1.07-.38.39-.33.6-.74.62-1.27.02-.53-.17-1.04-.59-1.55-.4-.48-.83-.74-1.32-.79-.48-.05-.93.1-1.36.46-.26.22-.45.48-.56.77-.11.3-.15.59-.11.88l.02.15-1.3.83-2.72-4.85,4.07-3.4,1.05,1.25-3.02,2.53.92,1.7c.21-.5.52-.91.92-1.24.7-.59,1.51-.85,2.4-.76.89.08,1.66.51,2.3,1.27.6.72.92,1.53.93,2.4.03,1.08-.41,2-1.29,2.75-.7.58-1.45.88-2.22.88ZM140.84,122.7c.5.43,1.05.65,1.66.66.68.02,1.34-.23,1.99-.77.78-.65,1.15-1.42,1.12-2.36-.02-.78-.29-1.47-.82-2.11-.56-.67-1.2-1.03-1.97-1.1-.77-.07-1.44.14-2.05.65-.46.38-.77.89-.94,1.53l-.16.58-1.66-3.06,2.96-2.47-.42-.51-3.39,2.83,2.27,4.06.62-.39c-.02-.32.03-.64.15-.96.14-.37.38-.7.7-.97.53-.44,1.1-.63,1.72-.57.61.06,1.16.39,1.64.96.5.6.74,1.23.71,1.88-.03.66-.3,1.2-.79,1.62-.41.35-.88.51-1.4.49-.46-.02-.91-.21-1.36-.56l-.56.56Z"/>
      </g>
      <g>
        <path d="M144.82,116.12c-.74-.89-1.25-1.68-1.51-2.37-.27-.69-.35-1.34-.23-1.93.11-.59.44-1.12.99-1.57.4-.34.82-.55,1.26-.64.44-.09.88-.07,1.34.07.45.14.92.38,1.4.73.48.34,1.03.89,1.65,1.63.73.88,1.24,1.66,1.51,2.35.27.69.35,1.33.24,1.93-.11.59-.44,1.12-.99,1.58-.72.6-1.51.82-2.35.65-1.02-.21-2.11-1.02-3.29-2.43ZM145.77,115.33c1.03,1.23,1.86,1.93,2.48,2.09.63.17,1.15.07,1.58-.28.42-.35.61-.85.55-1.5-.05-.65-.59-1.59-1.62-2.81-1.03-1.23-1.86-1.93-2.49-2.1-.63-.16-1.15-.07-1.58.29-.42.35-.61.81-.56,1.38.07.72.61,1.7,1.64,2.93Z"/>
        <path d="M148.67,118.84c-.2,0-.4-.02-.6-.06-1.07-.22-2.22-1.07-3.42-2.51-.75-.9-1.28-1.72-1.56-2.43-.28-.73-.37-1.43-.24-2.06.12-.65.49-1.22,1.07-1.71.43-.36.89-.59,1.37-.69.47-.1.96-.07,1.46.08.48.15.97.4,1.47.76.5.36,1.05.9,1.69,1.67.75.9,1.27,1.71,1.55,2.42.29.73.37,1.42.25,2.06-.12.65-.49,1.23-1.08,1.72-.61.51-1.26.76-1.95.76ZM145.01,115.96c1.13,1.36,2.19,2.14,3.15,2.34.77.16,1.48-.03,2.15-.59.5-.42.81-.9.91-1.44.1-.55.03-1.15-.22-1.8-.26-.66-.76-1.43-1.47-2.29-.61-.73-1.15-1.26-1.61-1.59-.45-.33-.9-.56-1.33-.69-.41-.13-.82-.15-1.22-.07-.4.08-.79.28-1.16.59-.5.42-.8.9-.91,1.44-.1.55-.03,1.15.22,1.8.26.66.75,1.44,1.48,2.3ZM148.83,117.74c-.2,0-.41-.03-.63-.09-.69-.18-1.54-.89-2.61-2.17-1.07-1.28-1.63-2.28-1.7-3.06-.05-.65.16-1.18.65-1.59.49-.41,1.1-.52,1.8-.34.68.18,1.54.89,2.61,2.18,1.07,1.28,1.62,2.24,1.67,2.95.06.73-.15,1.31-.64,1.71-.33.28-.72.42-1.16.42ZM145.72,110.89c-.33,0-.62.1-.87.31-.36.3-.52.69-.48,1.18.06.67.59,1.61,1.59,2.79.99,1.18,1.78,1.86,2.36,2.02.55.14,1,.07,1.36-.23.36-.3.51-.73.47-1.3-.05-.6-.58-1.5-1.56-2.68-1-1.19-1.79-1.87-2.36-2.02-.18-.05-.34-.07-.5-.07Z"/>
      </g>
      <g>
        <path d="M218.84,68.22l-.39-1.08,5.95-2.15.32.88c-.36.83-.64,1.87-.84,3.11-.2,1.24-.26,2.46-.18,3.66.05.85.21,1.74.48,2.68l-1.16.42c-.25-.73-.42-1.65-.52-2.77-.1-1.12-.07-2.25.1-3.38.16-1.13.41-2.13.75-2.99l-4.5,1.63Z"/>
        <path d="M222.87,76.05l-.08-.23c-.25-.74-.43-1.7-.53-2.83-.1-1.14-.07-2.29.1-3.44.13-.94.33-1.79.58-2.55l-4.24,1.53-.56-1.54,6.4-2.32.43,1.19-.04.09c-.35.81-.63,1.83-.82,3.05-.2,1.21-.26,2.42-.18,3.61.05.83.21,1.71.47,2.63l.06.22-1.6.58ZM223.76,66.19l-.2.5c-.33.84-.57,1.82-.73,2.93-.16,1.11-.19,2.23-.1,3.33.09.98.23,1.81.43,2.48l.71-.26c-.24-.87-.38-1.72-.43-2.52-.08-1.22-.02-2.47.18-3.72.2-1.22.47-2.25.82-3.08l-.2-.56-5.49,1.99.23.63,4.77-1.73Z"/>
      </g>
      <g>
        <path d="M227.11,69.12c-.39-1.09-.6-2-.61-2.74-.02-.74.13-1.37.44-1.89.31-.52.8-.9,1.47-1.14.49-.18.96-.24,1.4-.17.44.06.85.24,1.23.52.38.29.73.67,1.06,1.16.33.49.66,1.18.99,2.1.39,1.08.59,1.99.61,2.73.02.74-.13,1.37-.44,1.89-.31.52-.8.9-1.47,1.15-.89.32-1.7.25-2.43-.2-.88-.55-1.63-1.68-2.26-3.4ZM228.27,68.7c.55,1.51,1.09,2.45,1.62,2.82.53.37,1.06.46,1.58.28.52-.19.86-.6,1.03-1.22.17-.63-.02-1.69-.56-3.2-.55-1.51-1.09-2.45-1.62-2.82-.53-.37-1.06-.46-1.59-.27-.52.19-.85.56-1,1.11-.19.7,0,1.8.54,3.31Z"/>
        <path d="M230.74,73.16c-.53,0-1.02-.14-1.49-.43-.94-.58-1.71-1.73-2.36-3.53-.4-1.11-.61-2.06-.63-2.82-.02-.78.14-1.46.48-2.02.34-.57.88-.98,1.59-1.24.53-.19,1.04-.25,1.52-.18.48.07.94.26,1.34.57.4.3.77.71,1.12,1.22.34.5.69,1.23,1.02,2.15.4,1.09.61,2.04.63,2.8.02.79-.14,1.47-.47,2.03-.34.57-.88.99-1.6,1.25-.39.14-.78.21-1.15.21ZM227.34,69.04c.6,1.66,1.33,2.77,2.16,3.28.68.41,1.4.47,2.22.17.61-.22,1.07-.57,1.35-1.04.28-.48.42-1.07.4-1.77-.02-.71-.22-1.61-.6-2.65-.32-.89-.64-1.57-.96-2.04-.32-.46-.66-.83-1.01-1.1-.35-.26-.71-.42-1.12-.48-.4-.06-.83,0-1.29.16-.62.22-1.06.56-1.34,1.04-.29.48-.42,1.07-.41,1.76.01.71.22,1.61.6,2.67ZM230.94,72.13c-.4,0-.79-.14-1.19-.41-.58-.4-1.14-1.36-1.71-2.93-.57-1.57-.75-2.7-.54-3.46.17-.63.56-1.06,1.15-1.27.6-.22,1.21-.12,1.81.3.58.4,1.14,1.36,1.71,2.94.57,1.57.75,2.66.56,3.34-.19.71-.59,1.17-1.19,1.39-.2.07-.4.11-.61.11ZM228.5,68.62c.53,1.45,1.04,2.36,1.53,2.7.47.32.91.41,1.36.25.44-.16.73-.51.88-1.06.16-.57-.03-1.6-.55-3.05-.53-1.46-1.04-2.37-1.53-2.71-.47-.32-.92-.4-1.37-.24-.44.16-.72.47-.85.94-.17.65,0,1.71.53,3.17Z"/>
      </g>
      <g>
        <path d="M53.34,311.16c-1.16,0-2.08-.12-2.79-.36-.7-.24-1.25-.59-1.63-1.06-.38-.47-.57-1.06-.57-1.77,0-.52.1-.98.32-1.38.21-.4.52-.72.91-.98.4-.26.88-.46,1.45-.61.57-.15,1.34-.22,2.31-.22,1.15,0,2.07.12,2.77.35.7.24,1.25.59,1.63,1.06.38.47.58,1.06.58,1.78,0,.94-.34,1.68-1.01,2.22-.81.64-2.14.97-3.97.97ZM53.34,309.93c1.6,0,2.67-.19,3.2-.56.53-.38.8-.84.8-1.39s-.27-1.01-.8-1.39c-.53-.38-1.6-.56-3.2-.56s-2.68.19-3.21.56c-.53.38-.79.84-.79,1.4s.23.99.7,1.32c.59.41,1.69.62,3.3.62Z"/>
        <path d="M53.34,311.4c-1.18,0-2.14-.12-2.87-.37-.74-.25-1.33-.63-1.74-1.14-.42-.51-.63-1.16-.63-1.92,0-.56.12-1.07.35-1.49.23-.43.56-.79.99-1.07.42-.27.93-.49,1.52-.64.6-.15,1.37-.23,2.37-.23,1.17,0,2.13.12,2.85.36.74.25,1.33.63,1.74,1.13.42.51.63,1.16.63,1.93,0,1.01-.37,1.82-1.1,2.41-.86.69-2.21,1.02-4.12,1.02ZM53.34,305.03c-.94,0-1.7.07-2.25.21-.54.14-1.01.33-1.38.58-.36.23-.64.53-.83.89-.19.36-.29.78-.29,1.27,0,.66.17,1.19.52,1.62.35.43.86.76,1.52.98.68.23,1.59.34,2.71.34,1.77,0,3.06-.31,3.82-.91.62-.49.92-1.16.92-2.03,0-.65-.17-1.2-.52-1.62-.35-.43-.87-.76-1.52-.98-.68-.23-1.58-.34-2.7-.34ZM53.34,310.17c-1.67,0-2.79-.22-3.44-.66-.53-.37-.8-.89-.8-1.52s.3-1.18.89-1.6c.58-.41,1.67-.61,3.35-.61s2.76.2,3.34.61c.6.42.9.96.9,1.59s-.3,1.17-.9,1.59c-.58.41-1.67.61-3.34.61ZM53.34,306.26c-1.55,0-2.58.17-3.07.52-.46.33-.69.72-.69,1.2s.19.84.6,1.12c.55.38,1.61.57,3.16.57s2.57-.17,3.06-.52c.47-.33.69-.72.69-1.19s-.23-.86-.7-1.19c-.49-.34-1.52-.52-3.06-.52Z"/>
      </g>
    </g>
    <g>
      <g>
        <g>
          <path d="M579.51,301.09v-1.21h7.69c-.28-.29-.55-.67-.83-1.14-.28-.47-.49-.9-.62-1.27h1.17c.32.68.7,1.27,1.15,1.77.45.5.89.86,1.31,1.07v.78h-9.87Z"/>
          <path d="M589.63,301.34h-10.36v-1.69h7.41c-.17-.23-.35-.49-.52-.78-.28-.48-.5-.92-.64-1.31l-.12-.33h1.67l.07.14c.31.65.68,1.23,1.12,1.71.43.48.85.82,1.24,1.02l.14.07v1.17ZM579.76,300.85h9.39v-.39c-.41-.23-.83-.58-1.25-1.06-.43-.49-.81-1.05-1.13-1.69h-.66c.12.28.28.58.47.91.27.46.54.83.8,1.1l.39.41h-8.02v.72Z"/>
        </g>
        <g>
          <path d="M584.85,306c.18-.5.45-.87.78-1.11.34-.24.75-.36,1.22-.36.72,0,1.32.26,1.81.77.49.51.73,1.2.73,2.05s-.25,1.55-.75,2.07c-.5.52-1.11.78-1.82.78-.46,0-.85-.12-1.19-.36-.34-.24-.6-.6-.78-1.09-.2.6-.51,1.06-.95,1.38-.44.31-.96.47-1.57.47-.84,0-1.55-.3-2.12-.89-.57-.59-.86-1.38-.86-2.35s.29-1.75.86-2.35c.57-.59,1.29-.89,2.15-.89.64,0,1.18.16,1.61.49.43.32.73.79.88,1.39ZM582.35,305.37c-.34,0-.68.08-1,.24-.32.16-.57.41-.75.73-.18.32-.26.67-.26,1.04,0,.58.19,1.05.56,1.43.37.38.84.56,1.42.56s1.06-.19,1.44-.58c.38-.39.57-.87.57-1.45s-.19-1.04-.56-1.41c-.38-.37-.85-.56-1.41-.56ZM586.89,305.76c-.47,0-.85.15-1.14.45-.3.3-.44.69-.44,1.17s.15.85.44,1.14c.29.3.65.45,1.08.45s.82-.15,1.12-.46c.3-.31.45-.69.45-1.14s-.15-.84-.44-1.15c-.3-.3-.65-.46-1.06-.46Z"/>
          <path d="M582.32,310.85c-.91,0-1.68-.33-2.29-.97-.61-.64-.93-1.48-.93-2.52s.31-1.88.93-2.52c.62-.64,1.4-.97,2.32-.97.69,0,1.28.18,1.75.53.33.25.58.56.77.95.17-.28.37-.51.61-.68.38-.27.84-.41,1.36-.41.78,0,1.45.28,1.98.85.53.56.8,1.31.8,2.22s-.27,1.67-.82,2.24c-.54.57-1.21.86-2,.86-.51,0-.95-.14-1.33-.4-.24-.17-.45-.41-.63-.69-.21.41-.48.73-.83.98-.48.34-1.05.52-1.71.52ZM582.36,304.37c-.8,0-1.44.27-1.98.82-.53.55-.79,1.27-.79,2.18s.26,1.63.79,2.18c.53.55,1.17.82,1.95.82.55,0,1.03-.14,1.43-.43.39-.28.68-.71.86-1.26l.21-.66.24.65c.16.44.4.77.69.98.3.21.64.31,1.05.31.65,0,1.19-.23,1.65-.71.45-.47.68-1.12.68-1.91s-.22-1.42-.66-1.89c-.44-.47-.98-.7-1.63-.7-.43,0-.78.1-1.08.32-.3.21-.53.55-.7,1l-.27.73-.2-.75c-.14-.55-.4-.96-.79-1.25-.39-.29-.88-.44-1.46-.44ZM582.31,309.62c-.64,0-1.17-.21-1.59-.64-.42-.42-.63-.96-.63-1.6,0-.41.1-.8.3-1.16.2-.36.49-.64.85-.83.36-.18.73-.27,1.11-.27.63,0,1.16.21,1.58.63.42.42.63.95.63,1.58s-.22,1.19-.64,1.62c-.43.43-.97.65-1.62.65ZM582.35,305.61c-.3,0-.6.07-.89.22-.28.14-.49.35-.65.63-.16.29-.23.59-.23.92,0,.52.16.93.49,1.26.33.33.73.49,1.24.49s.93-.17,1.27-.51c.34-.34.5-.76.5-1.28s-.16-.91-.49-1.24c-.33-.33-.74-.49-1.24-.49ZM586.83,309.21c-.49,0-.91-.17-1.25-.52-.34-.34-.51-.78-.51-1.31s.17-.99.51-1.34c.34-.35.78-.52,1.31-.52.48,0,.89.18,1.23.53.34.35.51.79.51,1.32s-.18.96-.52,1.31c-.35.35-.78.53-1.29.53ZM586.89,306c-.4,0-.72.12-.97.38-.25.25-.37.58-.37,1s.12.72.37.97c.25.25.54.37.9.37.38,0,.69-.13.94-.39.26-.26.38-.58.38-.97s-.12-.72-.37-.98c-.25-.26-.54-.38-.89-.38Z"/>
        </g>
      </g>
      <g>
        <path d="M584.36,311.75c1.16,0,2.1.12,2.81.36.71.24,1.26.59,1.64,1.07.38.47.58,1.06.58,1.78,0,.53-.11.99-.32,1.39-.21.4-.52.73-.92.99-.4.26-.89.46-1.46.61-.57.15-1.35.22-2.33.22-1.15,0-2.08-.12-2.79-.36-.71-.24-1.26-.59-1.64-1.06-.39-.47-.58-1.07-.58-1.79,0-.95.34-1.69,1.02-2.23.82-.65,2.15-.97,4-.97ZM584.36,312.99c-1.61,0-2.69.19-3.22.57-.53.38-.8.84-.8,1.4s.27,1.02.8,1.4c.54.38,1.61.57,3.22.57s2.69-.19,3.23-.57c.53-.38.8-.85.8-1.41s-.23-1-.7-1.33c-.6-.42-1.71-.62-3.32-.62Z"/>
        <path d="M584.36,318.4c-1.18,0-2.14-.12-2.87-.37-.75-.25-1.34-.63-1.75-1.14-.42-.51-.63-1.17-.63-1.94,0-1.02.37-1.84,1.11-2.42.86-.68,2.25-1.03,4.15-1.03,1.18,0,2.15.12,2.88.37.75.25,1.34.64,1.75,1.14.42.51.63,1.16.63,1.93,0,.57-.12,1.07-.35,1.5-.23.43-.57.79-1,1.08-.42.27-.94.49-1.53.64-.59.15-1.39.23-2.39.23ZM584.36,311.99c-1.78,0-3.08.31-3.85.92-.62.5-.93,1.16-.93,2.04,0,.67.17,1.2.52,1.63.36.43.87.77,1.53.99.68.23,1.59.34,2.72.34.95,0,1.71-.07,2.26-.21.55-.14,1.01-.33,1.39-.58.36-.24.64-.54.84-.9.19-.36.29-.79.29-1.27,0-.66-.17-1.2-.52-1.63-.35-.43-.87-.77-1.53-.99-.68-.23-1.6-.35-2.73-.35ZM584.36,317.16c-1.68,0-2.77-.2-3.36-.61-.6-.42-.91-.96-.91-1.6s.3-1.17.9-1.6c.58-.41,1.68-.61,3.36-.61s2.81.22,3.46.67c.54.38.81.89.81,1.53s-.3,1.19-.9,1.61c-.58.41-1.68.61-3.37.61ZM584.36,313.23c-1.56,0-2.59.18-3.08.52-.47.33-.7.73-.7,1.2s.23.87.7,1.2c.49.35,1.53.52,3.08.52s2.6-.18,3.09-.52c.47-.33.7-.73.7-1.21s-.2-.85-.6-1.13c-.55-.38-1.62-.58-3.18-.58Z"/>
      </g>
    </g>
  </g>
  <g>
    <g>
      <path d="M306.02,68.18l1.96-.18c.17.92.48,1.59.95,2,.47.41,1.07.62,1.8.62.63,0,1.17-.14,1.65-.43.47-.29.86-.67,1.16-1.15.3-.48.55-1.13.76-1.94.2-.82.31-1.64.31-2.49,0-.09,0-.23-.01-.41-.41.65-.96,1.18-1.67,1.58-.71.4-1.47.61-2.29.61-1.37,0-2.53-.5-3.48-1.49-.95-.99-1.43-2.31-1.43-3.94s.5-3.04,1.49-4.06c.99-1.02,2.23-1.54,3.73-1.54,1.08,0,2.06.29,2.96.87.89.58,1.57,1.41,2.04,2.48.46,1.07.69,2.63.69,4.67s-.23,3.81-.69,5.06c-.46,1.26-1.14,2.21-2.05,2.87-.91.66-1.97.98-3.2.98-1.3,0-2.36-.36-3.18-1.08-.82-.72-1.32-1.73-1.48-3.04ZM314.35,60.86c0-1.17-.31-2.1-.93-2.78-.62-.69-1.37-1.03-2.24-1.03s-1.69.37-2.36,1.11c-.67.74-1.01,1.7-1.01,2.87,0,1.06.32,1.91.96,2.57.64.66,1.42.99,2.36.99s1.72-.33,2.32-.99c.61-.66.91-1.57.91-2.74Z"/>
      <path d="M310.68,72.54c-1.35,0-2.47-.38-3.34-1.14-.86-.76-1.39-1.83-1.56-3.19l-.03-.25,2.43-.22.04.22c.16.86.45,1.49.87,1.86.42.37.97.56,1.64.56.58,0,1.09-.13,1.52-.4.44-.27.8-.63,1.08-1.07.29-.45.53-1.08.73-1.87.17-.69.27-1.4.29-2.11-.36.42-.8.77-1.31,1.06-.74.42-1.55.64-2.41.64-1.44,0-2.67-.53-3.66-1.57-.99-1.04-1.49-2.42-1.49-4.1s.52-3.16,1.56-4.23c1.03-1.07,2.35-1.61,3.9-1.61,1.12,0,2.16.31,3.09.91.93.6,1.65,1.48,2.13,2.59.47,1.1.71,2.7.71,4.76s-.24,3.87-.7,5.14c-.48,1.3-1.2,2.3-2.14,2.98-.95.68-2.07,1.03-3.34,1.03ZM306.29,68.4c.19,1.12.65,2.01,1.37,2.64.77.68,1.79,1.02,3.02,1.02,1.16,0,2.19-.32,3.05-.94.86-.62,1.53-1.55,1.97-2.75.45-1.22.67-2.9.67-4.98s-.23-3.53-.68-4.57c-.44-1.02-1.1-1.82-1.95-2.37-.85-.55-1.8-.83-2.83-.83-1.42,0-2.61.49-3.55,1.46-.94.97-1.42,2.28-1.42,3.89s.46,2.82,1.36,3.77c.9.94,2.01,1.42,3.31,1.42.78,0,1.51-.19,2.17-.57.67-.38,1.2-.88,1.58-1.5l.41-.66s.04,1.1.04,1.2c0,.86-.1,1.72-.31,2.55-.21.84-.47,1.51-.79,2.01-.32.51-.74.92-1.24,1.23-.51.31-1.1.47-1.77.47-.79,0-1.45-.23-1.96-.68-.47-.42-.8-1.06-.98-1.92l-1.49.14ZM311.12,64.84c-1,0-1.85-.36-2.53-1.06-.68-.7-1.02-1.63-1.02-2.74,0-1.23.36-2.25,1.07-3.04.72-.79,1.57-1.19,2.54-1.19s1.76.37,2.42,1.11c.66.73,1,1.72,1,2.95s-.33,2.2-.97,2.91c-.65.71-1.49,1.07-2.5,1.07ZM311.17,57.29c-.84,0-1.56.34-2.19,1.03-.63.69-.94,1.6-.94,2.71,0,1,.29,1.79.89,2.41.6.62,1.31.92,2.18.92s1.58-.3,2.15-.91c.56-.61.85-1.48.85-2.58s-.29-1.98-.87-2.62c-.58-.64-1.25-.95-2.07-.95Z"/>
    </g>
    <g>
      <path d="M318.52,63.84c0-1.96.2-3.54.61-4.73.4-1.2,1-2.12,1.8-2.77.8-.65,1.8-.97,3-.97.89,0,1.67.18,2.34.54.67.36,1.22.87,1.66,1.55.44.68.78,1.5,1.03,2.47.25.97.37,2.28.37,3.92,0,1.95-.2,3.52-.6,4.71-.4,1.2-1,2.12-1.79,2.77-.8.65-1.8.98-3.01.98-1.6,0-2.85-.57-3.77-1.72-1.09-1.38-1.64-3.63-1.64-6.74ZM320.62,63.84c0,2.72.32,4.53.96,5.43.64.9,1.42,1.35,2.36,1.35s1.72-.45,2.36-1.36c.64-.9.96-2.71.96-5.43s-.32-4.54-.96-5.44c-.64-.9-1.43-1.35-2.38-1.35s-1.68.4-2.24,1.19c-.7,1.01-1.05,2.88-1.05,5.6Z"/>
      <path d="M323.93,72.54c-1.67,0-3-.61-3.96-1.81-1.12-1.42-1.69-3.74-1.69-6.89,0-1.98.21-3.59.62-4.81.42-1.23,1.05-2.2,1.88-2.88.84-.68,1.9-1.03,3.16-1.03.93,0,1.75.19,2.46.57.7.38,1.29.92,1.75,1.63.45.69.81,1.55,1.06,2.54.25.99.38,2.33.38,3.98,0,1.96-.21,3.57-.61,4.79-.41,1.23-1.04,2.2-1.87,2.88-.84.69-1.9,1.03-3.17,1.03ZM323.93,55.61c-1.14,0-2.1.31-2.85.92-.76.62-1.34,1.51-1.72,2.66-.39,1.17-.59,2.73-.59,4.66,0,3.04.53,5.26,1.59,6.59.87,1.09,2.04,1.63,3.58,1.63,1.15,0,2.11-.31,2.86-.92.76-.62,1.33-1.51,1.72-2.66.39-1.16.59-2.72.59-4.63,0-1.61-.12-2.91-.37-3.86-.24-.94-.58-1.74-1-2.4-.41-.64-.94-1.13-1.57-1.47-.63-.34-1.38-.51-2.23-.51ZM323.93,70.86c-1.01,0-1.87-.49-2.56-1.45-.67-.95-1-2.78-1-5.57s.36-4.68,1.1-5.74c.6-.86,1.42-1.29,2.44-1.29s1.9.49,2.58,1.45c.67.95,1,2.77,1,5.58s-.33,4.61-1,5.57c-.68.97-1.54,1.46-2.56,1.46ZM323.91,57.29c-.86,0-1.53.35-2.04,1.08-.67.96-1.01,2.8-1.01,5.46s.31,4.44.91,5.29c.59.84,1.3,1.25,2.16,1.25s1.57-.41,2.16-1.25c.61-.86.91-2.64.91-5.29s-.31-4.45-.91-5.3c-.59-.84-1.31-1.24-2.18-1.24Z"/>
    </g>
  </g>
</svg>